<svg id="Слой_1" data-name="Слой 1" xmlns="http://www.w3.org/2000/svg" width="334.35" height="409.6" viewBox="0 0 334.35 409.6"><title>1 этап</title><path d="M406.28,633.28a6.42,6.42,0,0,0-6.41,6.41,14.11,14.11,0,1,1-14.11-14.11,6.41,6.41,0,1,0,0-12.83,26.94,26.94,0,1,0,26.94,26.94,6.41,6.41,0,0,0-6.41-6.41h0Zm0,0" transform="translate(-317.78 -551.19)" style="fill:#333"/><path d="M406.28,708.53a6.42,6.42,0,0,0-6.41,6.41,14.11,14.11,0,1,1-14.11-14.11,6.41,6.41,0,1,0,0-12.83,26.94,26.94,0,1,0,26.94,26.94,6.41,6.41,0,0,0-6.41-6.41h0Zm0,0" transform="translate(-317.78 -551.19)" style="fill:#333"/><path d="M481.53,722.21H433.65a6.41,6.41,0,0,0,0,12.83h47.89a6.41,6.41,0,1,0,0-12.83h0Zm0,0" transform="translate(-317.78 -551.19)" style="fill:#333"/><path d="M481.53,694.85H433.65a6.41,6.41,0,0,0,0,12.83h47.89a6.41,6.41,0,0,0,0-12.83h0Zm0,0" transform="translate(-317.78 -551.19)" style="fill:#333"/><path d="M467.86,797.46H433.65a6.41,6.41,0,0,0,0,12.83h34.21a6.41,6.41,0,0,0,0-12.83h0Zm0,0" transform="translate(-317.78 -551.19)" style="fill:#333"/><path d="M481.53,770.1H433.65a6.41,6.41,0,0,0,0,12.83h47.89a6.41,6.41,0,1,0,0-12.83h0Zm0,0" transform="translate(-317.78 -551.19)" style="fill:#333"/><path d="M543.1,647H433.65a6.41,6.41,0,0,0,0,12.83H543.1a6.41,6.41,0,0,0,0-12.83h0Zm0,0" transform="translate(-317.78 -551.19)" style="fill:#333"/><path d="M515.74,619.6H433.65a6.41,6.41,0,1,0,0,12.82h82.09a6.41,6.41,0,0,0,0-12.82h0Zm0,0" transform="translate(-317.78 -551.19)" style="fill:#333"/><path d="M406.28,783.78a6.42,6.42,0,0,0-6.41,6.41,14.11,14.11,0,1,1-14.11-14.11,6.41,6.41,0,1,0,0-12.83,26.94,26.94,0,1,0,26.94,26.94,6.41,6.41,0,0,0-6.41-6.41h0Zm0,0" transform="translate(-317.78 -551.19)" style="fill:#333"/><path d="M570.47,551.19H337.88a20.12,20.12,0,0,0-20.09,20.09V858.6a20.12,20.12,0,0,0,20.09,20.09h116.3a6.41,6.41,0,1,0,0-12.83H337.88a7.27,7.27,0,0,1-7.27-7.27V571.28a7.27,7.27,0,0,1,7.27-7.27H570.47a7.27,7.27,0,0,1,7.27,7.27V783.35a6.41,6.41,0,1,0,12.82,0V571.28a20.12,20.12,0,0,0-20.09-20.09h0Zm0,0" transform="translate(-317.78 -551.19)" style="fill:#333"/><path d="M631,811.26a23.67,23.67,0,0,0-16.63,4.67,23.37,23.37,0,0,0-17.57-11.51,23.67,23.67,0,0,0-16.63,4.68,23.35,23.35,0,0,0-17.57-11.52A23.7,23.7,0,0,0,549.51,800V718.36A23.51,23.51,0,0,0,523.6,695c-11.84,1.18-21.11,11.89-21.11,24.37v81.88l-18.85,18.85a40.36,40.36,0,0,0-10.82,38l14.31,60.83A54.09,54.09,0,0,0,540,960.79h57.85a54.36,54.36,0,0,0,54.3-54.3V835.64c0-12.48-9.27-23.19-21.11-24.37h0Zm8.29,95.23A41.52,41.52,0,0,1,597.83,948H540a41.32,41.32,0,0,1-40.37-32L485.3,855.16a27.61,27.61,0,0,1,7.4-26l9.78-9.79V841.5a6.41,6.41,0,0,0,12.83,0V719.34c0-6,4.2-11.07,9.57-11.61a10.69,10.69,0,0,1,11.81,10.63V831.24a6.41,6.41,0,0,0,12.83,0V821a10.69,10.69,0,0,1,11.81-10.63c5.36,0.54,9.57,5.64,9.57,11.61v16.13a6.41,6.41,0,1,0,12.82,0V827.82a10.7,10.7,0,0,1,11.82-10.63c5.36,0.53,9.56,5.64,9.56,11.61v16.13a6.41,6.41,0,1,0,12.83,0V834.66A10.69,10.69,0,0,1,629.74,824c5.36,0.54,9.57,5.64,9.57,11.61v70.85h0Zm0,0" transform="translate(-317.78 -551.19)" style="fill:#fcc00b"/></svg>