<svg id="Слой_1" data-name="Слой 1" xmlns="http://www.w3.org/2000/svg" width="409.6" height="394.66" viewBox="0 0 409.6 394.66"><title>2 этап</title><path d="M1527.78,251.72h-81.14a7.44,7.44,0,1,0,0,14.89h67.77l21.58,201H1159.85l25.33-201h67.89a7.45,7.45,0,0,0,0-14.89h-81L1143,482.52h409.6Zm0,0" transform="translate(-1142.96 -87.85)" style="fill:#c0c0c0"/><path d="M1341.4,370.51c-1.09.65-2.26,1.22-3.31,1.9-1.64,1.06-3.24,2.17-4.81,3.31a7.45,7.45,0,0,0,8.81,12c1.33-1,2.68-1.91,4.08-2.82a81.8,81.8,0,0,1,7.55-4.32,7.39,7.39,0,0,0,3.44-9.45c0.06-.06.13-0.11,0.19-0.16,13.46-14.27,58.85-67.72,77.64-156.78,3.81-18.06,4.67-35.39,2.55-51.51-6.4-48.95-36.81-74.83-87.94-74.83s-81.53,25.88-87.95,74.83c-2.11,16.13-1.26,33.46,2.55,51.51,18.61,88.2,63.27,141.44,77.2,156.32h0Zm-65-205.88c5.46-41.63,29.4-61.87,73.19-61.87s67.73,20.24,73.18,61.87c1.9,14.44,1.1,30.1-2.35,46.51-16.89,80.05-57.17,130.85-70.83,146.27-13.68-15.43-53.95-66.25-70.83-146.27-3.46-16.41-4.25-32.06-2.36-46.51h0Zm0,0" transform="translate(-1142.96 -87.85)" style="fill:#c0c0c0"/><path d="M1349.6,228.73A54.69,54.69,0,1,0,1294.9,174a54.75,54.75,0,0,0,54.69,54.69h0Zm0-94.48a39.8,39.8,0,1,1-39.8,39.8,39.85,39.85,0,0,1,39.8-39.8h0Zm0,0" transform="translate(-1142.96 -87.85)" style="fill:#c0c0c0"/><path d="M1376.94,357.12a7.45,7.45,0,0,0,3.11,14.56c4.36-.92,9.09-1.7,14-2.33a7.44,7.44,0,0,0-1.83-14.77c-5.38.66-10.54,1.52-15.32,2.54h0Zm0,0" transform="translate(-1142.96 -87.85)" style="fill:#c0c0c0"/><path d="M1415.44,360.14a7.44,7.44,0,0,0,7.43,7.13h0.32l14.9-.62a7.45,7.45,0,0,0,7.1-7.77,7.63,7.63,0,0,0-7.77-7.1l-14.86.62a7.43,7.43,0,0,0-7.12,7.76h0Zm0,0" transform="translate(-1142.96 -87.85)" style="fill:#c0c0c0"/><path d="M1310,394.4c-3.82,2.89-7.78,5.66-11.76,8.24a7.45,7.45,0,0,0,8.11,12.49c4.27-2.77,8.52-5.75,12.62-8.84a7.45,7.45,0,1,0-9-11.89h0Zm0,0" transform="translate(-1142.96 -87.85)" style="fill:#c0c0c0"/><path d="M1475.9,345.3a26.5,26.5,0,0,1-10,3.92,7.45,7.45,0,0,0,1.5,14.74,7.75,7.75,0,0,0,1.51-.16,41,41,0,0,0,15.61-6.35l1-.73a7.45,7.45,0,0,0-9-11.87Zm0,0" transform="translate(-1142.96 -87.85)" style="fill:#c0c0c0"/><path d="M1208.92,403.52a7.44,7.44,0,1,0-14.37-3.89,49.87,49.87,0,0,0-1.68,10.46c0,0.86-.06,1.72-0.06,2.63,0,1.46.07,2.92,0.21,4.37a7.45,7.45,0,0,0,7.4,6.69c0.25,0,.5,0,0.76,0a7.46,7.46,0,0,0,6.66-8.17c-0.11-1-.14-2-0.15-2.9,0-.62,0-1.23.05-1.85a35,35,0,0,1,1.16-7.3h0Zm0,0" transform="translate(-1142.96 -87.85)" style="fill:#c0c0c0"/><path d="M1475.73,287.44a43.78,43.78,0,0,0-17.76,1.35,7.44,7.44,0,0,0,2,14.61,7.34,7.34,0,0,0,2-.28,29.06,29.06,0,0,1,11.73-.91,7.45,7.45,0,0,0,2-14.76h0Zm0,0" transform="translate(-1142.96 -87.85)" style="fill:#c0c0c0"/><path d="M1490.55,324.32a7.45,7.45,0,0,0,4.91,9.31,7.3,7.3,0,0,0,2.2.34,7.43,7.43,0,0,0,7.11-5.25,31.88,31.88,0,0,0,1.36-7.17c0-.62.06-1.25,0.06-1.86a29.72,29.72,0,0,0-1.9-10.36,7.44,7.44,0,0,0-14,5.18,14.91,14.91,0,0,1,1,5.18l0,0.87a16.83,16.83,0,0,1-.73,3.78h0Zm0,0" transform="translate(-1142.96 -87.85)" style="fill:#c0c0c0"/><path d="M1273.1,416.64c-4.36,2-8.81,3.94-13.21,5.65a7.45,7.45,0,0,0,2.69,14.39,7.33,7.33,0,0,0,2.68-.5c4.73-1.82,9.49-3.86,14.17-6.06a7.45,7.45,0,0,0-6.33-13.49h0Zm0,0" transform="translate(-1142.96 -87.85)" style="fill:#c0c0c0"/><path d="M1218.9,385.64a7.44,7.44,0,0,0,3.56-.91,18.24,18.24,0,0,1,6.79-2.15,12.2,12.2,0,0,1,3,0,7.44,7.44,0,1,0,2-14.75,27.34,27.34,0,0,0-6.63-.06,33.16,33.16,0,0,0-12.26,3.88,7.45,7.45,0,0,0,3.57,14h0Zm0,0" transform="translate(-1142.96 -87.85)" style="fill:#c0c0c0"/><path d="M1217.36,444a36.27,36.27,0,0,0,4.87.92,47.52,47.52,0,0,0,5.73.35,55.34,55.34,0,0,0,7-.46,7.44,7.44,0,1,0-1.86-14.77,36.64,36.64,0,0,1-9.05.11,25.38,25.38,0,0,1-2.93-.56,7.44,7.44,0,1,0-3.74,14.41h0Zm0,0" transform="translate(-1142.96 -87.85)" style="fill:#c0c0c0"/></svg>