<svg id="Слой_1" data-name="Слой 1" xmlns="http://www.w3.org/2000/svg" xmlns:xlink="http://www.w3.org/1999/xlink" width="14.45cm" height="14.45cm" viewBox="0 0 409.6 409.6"><defs><linearGradient id="Безымянный_градиент_10" x1="2336.03" y1="2507.05" x2="2745.63" y2="2507.05" gradientUnits="userSpaceOnUse"><stop offset="0" stop-color="#fccd03"/><stop offset="1" stop-color="#fae906"/></linearGradient></defs><title>22</title><path d="M2540.83,2302.25c-113.11,0-204.8,91.7-204.8,204.8s91.69,204.8,204.8,204.8,204.8-91.7,204.8-204.8S2653.93,2302.25,2540.83,2302.25Zm93.88,242.7a18.78,18.78,0,0,1-10.68,3.3h-83.2a19,19,0,0,1-19-19v-143a19,19,0,0,1,38,0v124H2624A19,19,0,0,1,2643,2528a13.78,13.78,0,0,1,.55,3.88A14.15,14.15,0,0,1,2634.71,2545Z" transform="translate(-2336.03 -2302.25)" style="fill:url(#Безымянный_градиент_10)"/></svg>