<svg id="Слой_1" data-name="Слой 1" xmlns="http://www.w3.org/2000/svg" width="309.61" height="409.61" viewBox="0 0 309.61 409.61"><title>3 этап</title><path d="M1114,899.46a23.89,23.89,0,1,0,23.89,23.9,23.92,23.92,0,0,0-23.89-23.9h0Zm0,34.14a10.24,10.24,0,1,1,10.24-10.24A10.25,10.25,0,0,1,1114,933.6h0Zm0,0" transform="translate(-917 -558.12)" style="fill:#c0c0c0"/><path d="M1144.69,810.71a27.31,27.31,0,1,0-27.3-27.31,27.33,27.33,0,0,0,27.3,27.31h0Zm0-41A13.65,13.65,0,1,1,1131,783.4a13.67,13.67,0,0,1,13.65-13.65h0Zm0,0" transform="translate(-917 -558.12)" style="fill:#c0c0c0"/><path d="M980.85,640a6.8,6.8,0,0,0,4.82-2l13.65-13.65a6.83,6.83,0,0,0-9.65-9.65L976,628.39A6.83,6.83,0,0,0,980.85,640h0Zm0,0" transform="translate(-917 -558.12)" style="fill:#c0c0c0"/><path d="M1226.61,761.21a22.33,22.33,0,0,0-6.59-15.9l-3.8-3.81a30.67,30.67,0,0,0-20.34-53.67,29.52,29.52,0,0,0-3.69.27,29.53,29.53,0,0,0,.27-3.69,30.76,30.76,0,0,0-30.72-30.72,29.53,29.53,0,0,0-3.69.27,30.3,30.3,0,0,0,.27-3.69,30.76,30.76,0,0,0-30.72-30.72,30.42,30.42,0,0,0-3.68.27,30.43,30.43,0,0,0,.27-3.68,30.67,30.67,0,0,0-53.68-20.34l-31.11-31.11a22.5,22.5,0,0,0-31.8,0l-84.05,84.05a22.53,22.53,0,0,0,0,31.81l59.21,59.21A30.54,30.54,0,0,0,981,791.92a10,10,0,0,0,1.55,1.65l73.43,73.15V879h-13.66v88.75h177.5V879h-13.65V858.3a57.76,57.76,0,0,0,10-77.3l3.9-3.9a22.33,22.33,0,0,0,6.59-15.9h0ZM1213,718.55a17,17,0,0,1-6.4,13.29l-24-24A17.05,17.05,0,0,1,1213,718.55h0Zm-34.13-34.13a17.05,17.05,0,0,1-6.4,13.29l-24-24a17.05,17.05,0,0,1,30.37,10.68h0Zm-34.14-34.13a17.05,17.05,0,0,1-6.39,13.29l-24-24a17.05,17.05,0,0,1,30.36,10.68h0Zm-51.2-51.2a17,17,0,0,1,10.67,30.36l-24-24a17.08,17.08,0,0,1,13.3-6.39h0ZM933.22,670.91a8.86,8.86,0,0,1,0-12.5l84.05-84.05a8.79,8.79,0,0,1,2.91-1.93,13.45,13.45,0,0,1,5.15-.3,8.56,8.56,0,0,1,1.52.3,8.86,8.86,0,0,1,2.91,1.93l16,16-96.54,96.55Zm122.23-70.86L1210.36,755a8.84,8.84,0,0,1,0,12.49l-3,3-81.06,81.07a8.85,8.85,0,0,1-12.5,0l-54.44-54.45h6.8a30.72,30.72,0,1,0,0-61.44H997.93l-39-39ZM994.23,749.69l2.83-.32a6.2,6.2,0,0,1,.85-0.1h68.27a17.07,17.07,0,1,1,0,34.13H997.91a17.06,17.06,0,0,1-3.68-33.71h0Zm61.71,204.38V892.64h57.52a38.1,38.1,0,0,1,38.06,38.05v23.39h-95.58Zm150.19,0h-41V930.69a51.53,51.53,0,0,0-16.82-38.05h57.78v61.44Zm0.17-163.24a44.17,44.17,0,0,1-11.11,58.73l-2.71,2V879H1069.59V860.42l-2.41-2c-0.3-.27-0.63-0.51-1.23-1l-60.6-60.37h34.71l64.09,64.1a22.52,22.52,0,0,0,31.81,0Zm0,0" transform="translate(-917 -558.12)" style="fill:#c0c0c0"/></svg>