<svg id="Слой_1" data-name="Слой 1" xmlns="http://www.w3.org/2000/svg" xmlns:xlink="http://www.w3.org/1999/xlink" width="14.45cm" height="14.42cm" viewBox="0 0 409.6 408.67"><defs><linearGradient id="Безымянный_градиент_10" x1="743.87" y1="2752.59" x2="1153.47" y2="2752.59" gradientUnits="userSpaceOnUse"><stop offset="0" stop-color="#fccd03"/><stop offset="1" stop-color="#fae906"/></linearGradient></defs><title>33</title><path d="M1144.29,2871.49L1081,2808.23c-12.6-12.55-33.46-12.17-46.5.87L1002.66,2841c-2-1.11-4.1-2.27-6.29-3.5-20.12-11.15-47.67-26.43-76.65-55.44s-44.37-56.66-55.56-76.79c-1.18-2.13-2.31-4.19-3.43-6.15l21.39-21.35,10.52-10.53c13.06-13.06,13.42-33.92.85-46.51l-63.25-63.27c-12.57-12.57-33.44-12.19-46.5.88l-17.83,17.93,0.49,0.48a103.11,103.11,0,0,0-14.69,25.91,107.55,107.55,0,0,0-6.54,26.29c-8.35,69.24,23.29,132.53,109.16,218.4C973,2966,1068.7,2957,1072.82,2956.61a106.93,106.93,0,0,0,26.36-6.62,102.69,102.69,0,0,0,25.82-14.62l0.39,0.34,18.06-17.68c13-13.06,13.41-33.93.84-46.53h0Zm0,0" transform="translate(-743.87 -2548.25)" style="fill:url(#Безымянный_градиент_10)"/></svg>