<svg id="Слой_1" data-name="Слой 1" xmlns="http://www.w3.org/2000/svg" width="385.12" height="409.6" viewBox="0 0 385.12 409.6"><title>4 этап</title><path d="M735.59,338.87a24.3,24.3,0,0,0,17.79-10l63.92-88.36a6.83,6.83,0,0,0-9.54-9.54l-88.38,63.94a24.33,24.33,0,0,0,14.3,44c0.63,0,1.27,0,1.91-.07h0Zm-12.54-25.08a10.64,10.64,0,0,1,4.35-7.8l53.91-39-39,53.89a10.67,10.67,0,0,1-19.27-7.1h0Zm0,0" transform="translate(-531.88 -79.53)" style="fill:#c0c0c0"/><path d="M888.51,213.09c-0.07-.15-0.07-0.3-0.14-0.44s-0.21-.21-0.3-0.34a185.78,185.78,0,0,0-24.34-32.83l14.66-14.66,9.65,9.65,29-29-29-29-29,29,9.66,9.66-14.66,14.66a185.28,185.28,0,0,0-32.83-24.34c-0.13-.09-0.2-0.22-0.34-0.3s-0.29-.07-0.44-0.15a183,183,0,0,0-70.13-23.23v-8.13h10.24a17.07,17.07,0,1,0,0-34.13H699.13a17.07,17.07,0,0,0,0,34.13h10.24v7.89a188.4,188.4,0,0,0-22,3.65,6.82,6.82,0,1,0,3.05,13.3,174.19,174.19,0,0,1,19-3.25l7.32-.57c2.24-.17,4.3-0.29,6.31-0.39v13.5a6.83,6.83,0,1,0,13.65,0V134.34a169.42,169.42,0,0,1,71.38,19.42l-6.73,11.66a6.83,6.83,0,1,0,11.82,6.82l6.71-11.62a172,172,0,0,1,53.05,53.06l-11.62,6.71a6.83,6.83,0,0,0,6.84,11.82l11.65-6.73A169.44,169.44,0,0,1,899.23,298H885.75a6.83,6.83,0,0,0,0,13.66h13.48a169.44,169.44,0,0,1-19.45,72.49l-11.65-6.74a6.83,6.83,0,0,0-6.83,11.82l11.63,6.71A172,172,0,0,1,819.87,449l-6.71-11.63a6.83,6.83,0,0,0-11.82,6.82l6.73,11.65a169.28,169.28,0,0,1-71.38,19.42V461.82a6.83,6.83,0,1,0-13.65,0v13.49a172.09,172.09,0,0,1-32.61-4.21,6.83,6.83,0,0,0-3.05,13.31,184.43,184.43,0,0,0,41.35,4.73l1,0s0.08,0,.12,0,0.1,0,.16,0a183.15,183.15,0,0,0,90.24-24.39,6.18,6.18,0,0,0,.65-0.27c0.13-.08.21-0.21,0.34-0.3a185.64,185.64,0,0,0,66.71-66.64,5.37,5.37,0,0,0,.41-0.53c0.08-.14.08-0.3,0.14-0.44a183.61,183.61,0,0,0,0-183.45h0ZM888,135.85l9.65,9.65L888,155.17l-9.66-9.66ZM723,120.63V100H699.13a3.41,3.41,0,1,1,0-6.83h61.44a3.41,3.41,0,1,1,0,6.83H736.68v20.62c-2.38-.09-4.64-0.14-6.83-0.14h-1.11c-1.12,0-2.24.07-3.36,0.09-0.79,0-1.53,0-2.35,0h0Zm0,0" transform="translate(-531.88 -79.53)" style="fill:#c0c0c0"/><path d="M668.41,175.1H634.27a6.83,6.83,0,0,0,0,13.65h34.14a6.83,6.83,0,0,0,0-13.65h0Zm0,0" transform="translate(-531.88 -79.53)" style="fill:#c0c0c0"/><path d="M668.41,222.89H600.14a6.83,6.83,0,0,0,0,13.65h68.27a6.83,6.83,0,0,0,0-13.65h0Zm0,0" transform="translate(-531.88 -79.53)" style="fill:#c0c0c0"/><path d="M668.41,270.68H566a6.83,6.83,0,0,0,0,13.65h102.4a6.83,6.83,0,0,0,0-13.65h0Zm0,0" transform="translate(-531.88 -79.53)" style="fill:#c0c0c0"/><path d="M668.41,318.46H538.7a6.83,6.83,0,1,0,0,13.65H668.41a6.83,6.83,0,0,0,0-13.65h0Zm0,0" transform="translate(-531.88 -79.53)" style="fill:#c0c0c0"/><path d="M668.41,366.25H579.66a6.83,6.83,0,0,0,0,13.66h88.75a6.83,6.83,0,0,0,0-13.66h0Zm0,0" transform="translate(-531.88 -79.53)" style="fill:#c0c0c0"/><path d="M668.41,414H620.62a6.83,6.83,0,0,0,0,13.65h47.79a6.83,6.83,0,0,0,0-13.65h0Zm0,0" transform="translate(-531.88 -79.53)" style="fill:#c0c0c0"/></svg>