<svg id="Слой_1" data-name="Слой 1" xmlns="http://www.w3.org/2000/svg" width="409.6" height="259.1" viewBox="0 0 409.6 259.1"><title>5 этап</title><path d="M425.93,230.84l-10.61-42.43a6.42,6.42,0,0,0,5.07-6.27V175.3a27,27,0,0,0-26.93-26.94H345.14V134.25A13.27,13.27,0,0,0,331.89,121H85.62a13.27,13.27,0,0,0-13.25,13.25v116.3a6.41,6.41,0,0,0,12.83,0V134.25a0.43,0.43,0,0,1,.43-0.43H331.89a0.43,0.43,0,0,1,.43.43v116.3a6.41,6.41,0,0,0,12.83,0v-7.27h75.69a21,21,0,0,1,19.93,14.54H420.82a6.42,6.42,0,0,0-6.41,6.41v13.68A20.12,20.12,0,0,0,434.5,298h7.27v28.22H425a40.61,40.61,0,0,0-76.77,0h-3.09V277.91a6.41,6.41,0,0,0-12.83,0v48.31H199.25a40.61,40.61,0,0,0-76.77,0H85.62a0.43,0.43,0,0,1-.43-0.43V311.69H113a6.41,6.41,0,1,0,0-12.83H51.41a6.41,6.41,0,0,0,0,12.83H72.36V325.8a13.27,13.27,0,0,0,13.25,13.25h34.64c0,0.14,0,.28,0,0.43a40.62,40.62,0,1,0,81.23,0c0-.14,0-0.29,0-0.43H346c0,0.14,0,.28,0,0.43a40.62,40.62,0,1,0,81.23,0c0-.14,0-0.29,0-0.43h21a6.41,6.41,0,0,0,6.41-6.41V264.23a33.83,33.83,0,0,0-28.67-33.39h0Zm-80.78-69.65h48.32a14.13,14.13,0,0,1,14.11,14.11v0.43H345.14V161.19Zm0,69.27v-41.9h57l10.48,41.9H345.14ZM160.87,367.27a27.79,27.79,0,1,1,27.79-27.79,27.82,27.82,0,0,1-27.79,27.79h0Zm225.75,0a27.79,27.79,0,1,1,27.79-27.79,27.82,27.82,0,0,1-27.79,27.79h0Zm55.16-82.09H434.5a7.28,7.28,0,0,1-7.27-7.27v-7.27h14.54v14.54Zm0,0" transform="translate(-45 -121)" style="fill:#333"/><path d="M160.87,326.23a13.26,13.26,0,1,0,13.25,13.25,13.27,13.27,0,0,0-13.25-13.25h0Zm0,0" transform="translate(-45 -121)" style="fill:#333"/><path d="M386.62,326.23a13.26,13.26,0,1,0,13.25,13.25,13.27,13.27,0,0,0-13.25-13.25h0Zm0,0" transform="translate(-45 -121)" style="fill:#333"/><path d="M311.37,298.86H215.59a6.41,6.41,0,1,0,0,12.83h95.77a6.41,6.41,0,1,0,0-12.83h0Zm0,0" transform="translate(-45 -121)" style="fill:#333"/><path d="M147.19,271.5H65.09a6.41,6.41,0,1,0,0,12.83h82.09a6.41,6.41,0,0,0,0-12.83h0Zm0,0" transform="translate(-45 -121)" style="fill:#fcc00b"/><path d="M268,184.45a6.42,6.42,0,0,0-9.07,0l-57,57-29.67-29.67a6.41,6.41,0,0,0-9.07,9.07l34.2,34.21a6.41,6.41,0,0,0,9.07,0L268,193.52a6.41,6.41,0,0,0,0-9.07h0Zm0,0" transform="translate(-45 -121)" style="fill:#fcc00b"/></svg>