<svg id="Слой_1" data-name="Слой 1" xmlns="http://www.w3.org/2000/svg" width="13.39cm" height="14.59cm" viewBox="0 0 379.45 413.61"><title>Подменный телефон</title><path d="M2830.75,3996.58a8.83,8.83,0,0,0,8.82-8.82V3867.65a32.11,32.11,0,0,0-32.08-32.07H2635.54a32.1,32.1,0,0,0-32.07,32.07v349.46a32.11,32.11,0,0,0,32.07,32.08h171.95a32.12,32.12,0,0,0,32.08-32.08V4056a8.83,8.83,0,0,0-17.65,0v93.61h-200.8V3894.2h200.8v93.56A8.84,8.84,0,0,0,2830.75,3996.58Zm-23.26,234.95H2635.54a14.44,14.44,0,0,1-14.42-14.42v-49.85h200.8v49.85A14.44,14.44,0,0,1,2807.49,4231.53Zm14.42-355h-200.8v-8.88a14.45,14.45,0,0,1,14.43-14.42h171.95a14.43,14.43,0,0,1,14.42,14.41v8.89Z" transform="translate(-2603.47 -3835.58)" style="fill:#fff"/><path d="M2721.52,4174.25a25.15,25.15,0,1,0,25.15,25.15A25.18,25.18,0,0,0,2721.52,4174.25Zm0,34.72a9.57,9.57,0,1,1,9.57-9.57A9.59,9.59,0,0,1,2721.52,4209Z" transform="translate(-2603.47 -3835.58)" style="fill:#fff"/><path d="M2726.24,3864.89a6.72,6.72,0,0,1-6.72,6.72h-18.88a6.72,6.72,0,0,1,0-13.44h18.88A6.73,6.73,0,0,1,2726.24,3864.89Z" transform="translate(-2603.47 -3835.58)" style="fill:#fdc00c"/><path d="M2749.12,3864.89a6.73,6.73,0,0,1-6.72,6.72h-4.72a6.72,6.72,0,0,1,0-13.44h4.72A6.73,6.73,0,0,1,2749.12,3864.89Z" transform="translate(-2603.47 -3835.58)" style="fill:#fdc00c"/><path d="M2982.26,4025.28h0a8.77,8.77,0,0,1-1.9,2.87l-81.92,81.91a8.82,8.82,0,1,1-12.48-12.48l66.85-66.85H2714.69a8.82,8.82,0,1,1,0-17.65H2952.8l-66.85-66.85a8.83,8.83,0,0,1,12.48-12.49l81.91,81.91a9.08,9.08,0,0,1,1.92,2.88A9,9,0,0,1,2982.26,4025.28Z" transform="translate(-2603.47 -3835.58)" style="fill:#fdc00c"/></svg>