<svg id="Слой_1" data-name="Слой 1" xmlns="http://www.w3.org/2000/svg" width="15.47cm" height="11.73cm" viewBox="0 0 438.4 332.57"><title>Всегда бесплатная </title><path d="M2335.56,2665.72H1914a8.42,8.42,0,0,0-8.42,8.43V2960.8a8.42,8.42,0,0,0,8.42,8.44h421.54a8.43,8.43,0,0,0,8.44-8.44V2674.15A8.43,8.43,0,0,0,2335.56,2665.72Zm-8.42,286.65H1922.46V2682.58h404.68v269.79Z" transform="translate(-1905.6 -2665.72)" style="fill:#fff"/><path d="M2327.14,2842.77v16.86h-118a8.43,8.43,0,0,1-8.11-6.13l-25.6-89.62-25.63,89.95a8.44,8.44,0,0,1-15.35,2l-15.88-26.65-19.48,58.41a8.41,8.41,0,0,1-7.8,5.76h-0.19a8.44,8.44,0,0,1-7.86-5.4l-33.72-87.66-17.87,53.57a8.42,8.42,0,0,1-8,5.77H1922.46v-16.86h95.09l23.38-70.11a8.42,8.42,0,0,1,15.86-.36L2090.5,2860l17.87-53.57a8.43,8.43,0,0,1,15.24-1.66l15.31,25.69,28.35-99.56a8.44,8.44,0,0,1,16.23,0l32,111.91h111.68Z" transform="translate(-1905.6 -2665.72)" style="fill:#fdc00c"/><line x1="42.4" y1="296.57" x2="42.4" y2="323.57" style="fill:none;stroke:#fff;stroke-linecap:round;stroke-linejoin:round;stroke-width:18px"/><line x1="398.4" y1="296.57" x2="398.4" y2="323.57" style="fill:none;stroke:#fff;stroke-linecap:round;stroke-linejoin:round;stroke-width:18px"/></svg>