<svg id="Режим_изоляции" data-name="Режим изоляции" xmlns="http://www.w3.org/2000/svg" width="8cm" height="6.15cm" viewBox="0 0 226.75 174.29"><title>Среднее время прибытия</title><path d="M2108.89,2846.93c0,0.08,0,.17,0,0.26l0.11-.13Zm119.61-8.61h-23.89l-6.92-45,1.89,1.25a25.49,25.49,0,1,0-9.88-12.72l1.24,3.52-17.18-14.71a15.09,15.09,0,0,0-9.82-3.62h-51.69a10.25,10.25,0,0,0,0,20.5h49.32l-41.3,32.43a28.18,28.18,0,0,0,2.18,45.87l36.4,23.4-31.09,12.95a10.46,10.46,0,0,0,4,20.13,10.33,10.33,0,0,0,4.21-.89l40.45-17.85a17,17,0,0,0,4.81-27.44l-23.74-23.75,23.89-20.9,1.91,15.24a13.77,13.77,0,0,0,13.63,12.06h31.55A10.25,10.25,0,0,0,2228.5,2838.32Zm-15-84.53a19.75,19.75,0,1,1-19.75,19.75A19.77,19.77,0,0,1,2213.5,2753.79Zm15,99.53H2197a8.28,8.28,0,0,1-8.19-7.24l-3.19-25.51-36.11,31.59,27.91,27.9a11.52,11.52,0,0,1-3.21,18.55l-40.39,17.82a4.92,4.92,0,0,1-2,.43,5,5,0,0,1-1.91-9.56l31.88-13.28a5.06,5.06,0,0,0,.79-8.92l-37.11-23.86a22.69,22.69,0,0,1-1.75-36.93l45.21-35.51-6.74-6.73h-49.89a4.76,4.76,0,0,1,0-9.51h51.69a9.57,9.57,0,0,1,6.23,2.3l22,18.88,7.7,50.08h28.61A4.75,4.75,0,0,1,2228.5,2853.32Z" transform="translate(-2012 -2748.29)" style="fill:#333"/><path d="M2108.89,2846.93c0,0.08,0,.17,0,0.26l0.11-.13Z" transform="translate(-2012 -2748.29)" style="fill:#fff"/><path d="M2109.52,2866.23l-42.58,48.61a6.53,6.53,0,0,1-9.92-8.48l49.2-59.05-4.22-3.52-49.21,59.05a12,12,0,0,0,18.29,15.63l42.58-48.62Z" transform="translate(-2012 -2748.29)" style="fill:#333"/><path d="M2108.89,2846.93c0,0.08,0,.17,0,0.26l0.11-.13Z" transform="translate(-2012 -2748.29)" style="fill:#fff"/><rect x="30" y="48.78" width="80.5" height="5.5" style="fill:#fdc00c"/><rect x="7.5" y="48.78" width="13" height="5.5" style="fill:#fdc00c"/><rect x="37.5" y="63.78" width="54.25" height="5.5" style="fill:#fdc00c"/><rect x="15" y="63.78" width="13" height="5.5" style="fill:#fdc00c"/><rect x="41.25" y="78.78" width="46.75" height="5.5" style="fill:#fdc00c"/><rect x="22.5" y="78.78" width="9.25" height="5.5" style="fill:#fdc00c"/><rect x="22.5" y="33.78" width="61.75" height="5.5" style="fill:#fdc00c"/><rect y="33.78" width="13" height="5.5" style="fill:#fdc00c"/></svg>