<svg id="Режим_изоляции" data-name="Режим изоляции" xmlns="http://www.w3.org/2000/svg" width="9.13cm" height="9.13cm" viewBox="0 0 258.76 258.76"><title>Среднее время ремонта</title><path d="M2808,2712.36a129.38,129.38,0,1,0,129.38,129.38A129.53,129.53,0,0,0,2808,2712.36Zm0,252.07a122.69,122.69,0,1,1,122.68-122.69A122.83,122.83,0,0,1,2808,2964.43Z" transform="translate(-2678.62 -2712.36)" style="fill:#333"/><path d="M2824,2837.87H2824l-0.2-.75a16.34,16.34,0,0,0-11.7-11.7l-0.75-.2v-37.79a3.35,3.35,0,0,0-6.69,0v37.79l-0.75.2a16.46,16.46,0,0,0-11.12,9.74c-0.08.2-.17,0.41-0.23,0.6l-0.06.18c-0.06.16-.11,0.32-0.16,0.49a16,16,0,0,0-.55,2.43c0,0.2-.05.41-0.07,0.63l0,0.19,0,0.41c0,0.16,0,.27,0,0.38v0.1c0,0.22,0,.43,0,0.65a16.37,16.37,0,0,0,2.37,8.48c0.15,0.26.29,0.47,0.43,0.69a21,21,0,0,0,1.46,1.84l0.16,0.18c0.27,0.28.55,0.56,0.84,0.83l0.11,0.1a20.41,20.41,0,0,0,1.86,1.47c0.2,0.13.41,0.27,0.64,0.4a16.23,16.23,0,0,0,2.88,1.39,16,16,0,0,0,6.28,1h0.1l0.39,0,0.39,0h0l0.18,0,0.65-.07,0.59-.1,0.47-.09c0.5-.11.93-0.22,1.33-0.35l0.51-.17,0.15-.05c0.22-.07.43-0.16,0.62-0.24a12.8,12.8,0,0,0,1.19-.54c0.3-.15.6-0.3,0.89-0.48s0.57-.34.85-0.53a16.18,16.18,0,0,0,4.66-4.7c0.19-.28.36-0.57,0.52-0.86s0.33-.58.47-0.88a15.49,15.49,0,0,0,1.17-3.13l0.2-.75H2824A16.63,16.63,0,0,0,2824,2837.87Zm-16.05,13a9.7,9.7,0,1,1,9.7-9.69A9.7,9.7,0,0,1,2808,2850.91Z" transform="translate(-2678.62 -2712.36)" style="fill:#fdc00c"/><path d="M2808,2742.26a3.35,3.35,0,0,0-3.35,3.35v4.34a3.35,3.35,0,1,0,6.69,0v-4.34A3.35,3.35,0,0,0,2808,2742.26Z" transform="translate(-2678.62 -2712.36)" style="fill:#333"/><path d="M2808,2929.14a3.35,3.35,0,0,0-3.35,3.34v4.35a3.35,3.35,0,0,0,6.69,0v-4.35A3.35,3.35,0,0,0,2808,2929.14Z" transform="translate(-2678.62 -2712.36)" style="fill:#333"/><path d="M2903.61,2837.87h-4.35a3.34,3.34,0,1,0,0,6.69h4.35A3.34,3.34,0,0,0,2903.61,2837.87Z" transform="translate(-2678.62 -2712.36)" style="fill:#333"/><path d="M2716.73,2837.87h-4.35a3.34,3.34,0,0,0,0,6.69h4.35A3.34,3.34,0,1,0,2716.73,2837.87Z" transform="translate(-2678.62 -2712.36)" style="fill:#333"/><path d="M2878,2771.24a3.37,3.37,0,0,0-4.74,0l-3.06,3.07a3.33,3.33,0,0,0,0,4.74,3.42,3.42,0,0,0,4.73,0L2878,2776A3.34,3.34,0,0,0,2878,2771.24Z" transform="translate(-2678.62 -2712.36)" style="fill:#333"/><path d="M2745.83,2903.38a3.36,3.36,0,0,0-4.73,0l-3.08,3.08a3.36,3.36,0,0,0,0,4.73,3.43,3.43,0,0,0,4.73,0l3.08-3.08A3.36,3.36,0,0,0,2745.83,2903.38Z" transform="translate(-2678.62 -2712.36)" style="fill:#333"/><path d="M2878,2906.46l-3.07-3.08a3.35,3.35,0,0,0-2.37-1,3.34,3.34,0,0,0-2.37,5.7l3.08,3.08a3.42,3.42,0,0,0,4.72,0A3.33,3.33,0,0,0,2878,2906.46Z" transform="translate(-2678.62 -2712.36)" style="fill:#333"/><path d="M2745.83,2774.31l-3.08-3.07a3.32,3.32,0,0,0-2.36-1A3.34,3.34,0,0,0,2738,2776l3.08,3.08a3.42,3.42,0,0,0,4.73,0A3.36,3.36,0,0,0,2745.83,2774.31Z" transform="translate(-2678.62 -2712.36)" style="fill:#333"/><path d="M2758.5,2893.49a3.47,3.47,0,0,1-2.47-1,3.59,3.59,0,0,1,0-4.95l37.43-37.43,0.1-.09a3.35,3.35,0,0,1,.82-0.57,3.41,3.41,0,0,1,1.55-.37,3.5,3.5,0,0,1,3.15,5,3.27,3.27,0,0,1-.56.83l-0.11.12L2761,2892.47A3.48,3.48,0,0,1,2758.5,2893.49Z" transform="translate(-2678.62 -2712.36)" style="fill:#fdc00c"/></svg>