<svg id="Режим_изоляции" data-name="Режим изоляции" xmlns="http://www.w3.org/2000/svg" width="7.26cm" height="6.43cm" viewBox="0 0 205.8 182.19"><title>cloud</title><path d="M239,194l0-.58c-0.07-1.65-.19-3.82-0.42-6l-0.11-1.11c-0.1-1-.2-2-0.36-3l-0.56-3.72c-0.11-.74-0.28-1.5-0.44-2.24-0.08-.37-0.15-0.74-0.23-1.11-0.14-.72-0.33-1.44-0.52-2.16l-0.24-1c-0.23-.91-0.5-1.82-0.78-2.74l-0.24-.82c-0.21-.72-0.41-1.4-0.66-2.06l-1.39-3.63c-0.17-.46-0.38-0.91-0.59-1.35L231.34,160c-0.31-.68-0.66-1.34-1-2l-0.47-.91c-0.41-.79-0.85-1.57-1.29-2.35l-0.17-.3a60.68,60.68,0,0,0-4.61-7.11,53.78,53.78,0,0,0-6.56-7.13,69.57,69.57,0,0,0-5.41-4.58l-0.33-.25c-0.81-.61-1.66-1.25-2.51-1.83-1-.7-2-1.35-3-2a63.12,63.12,0,0,0-5.68-3l-0.77-.34-0.41-.17-0.74-.32c-0.46-.2-0.93-0.41-1.4-0.58l-0.93-.36c-0.66-.25-1.28-0.49-1.91-0.68-0.3-.08-0.59-0.18-0.88-0.27-0.76-.23-1.48-0.46-2.21-0.62-1.09-.25-2.25-0.5-3.41-0.71-2.65-.49-5.35-0.82-7.4-1l-0.85-.07-1-.07c-0.35,0-.71-0.07-1.06-0.08l-0.87,0-2.26-.09c-2,0-4-.08-5.92-0.08h-0.58a108.14,108.14,0,0,0-13.09.61l-0.69.08c-2.21.28-4.49,0.57-6.71,1l-3.31.58c-1,.19-2.06.37-3,0.61l-0.39.09c-1.91.44-3.88,0.9-5.75,1.53-2.31.78-4.6,1.58-6.83,2.39-4.32,1.55-8.69,3.27-12.46,4.76-0.8.32-1.6,0.66-2.4,1l-1.54.66c-0.64.27-1.27,0.54-1.9,0.83l-0.58.27c-1.82.84-3.63,1.68-5.43,2.56-4.8,2.34-8.79,4.34-12.54,6.28-1.66.87-3.3,1.78-4.87,2.72l-3.71,2.21c-0.57.34-1.13,0.71-1.69,1.07l-1.39.9c-0.57.36-1.14,0.72-1.7,1.11l-3.5,2.41c-1.26.87-2.53,1.8-3.75,2.7l-1.55,1.14c-0.62.45-1.21,0.93-1.81,1.4l-3.63,2.88c-0.14.11-.27,0.23-0.4,0.35l-2.26,2c-0.58.52-1.14,1-1.66,1.55l-2.74,2.76c-0.51.52-1,1.08-1.48,1.63l-0.73.83-0.52.56c-0.41.45-.82,0.9-1.21,1.36l-2.71,3.28c-0.63.77-1.22,1.48-1.78,2.24l-2.5,3.39c-0.4.55-.76,1.11-1.15,1.71-0.16.26-.33,0.52-0.5,0.78-0.49.75-1,1.49-1.43,2.26l-1.9,3.21c-0.65,1.1-1.23,2.31-1.78,3.47l-0.08.16c-0.72,1.53-1.42,3.16-2.06,4.83a39.86,39.86,0,0,0-1.32,4.27,34,34,0,0,0-.84,4.06l-0.62,4.56c0,0.31-.1.63-0.12,0.94l-0.16,2.65c-0.05.75-.09,1.49-0.11,2.23,0,2.29-.08,4.68-0.08,7.31,0,1.89,0,3.86.1,5.86l0.14,3.72c0,0.8.09,1.6,0.16,2.41l0.09,1.22c0,0.7.12,1.4,0.19,2.09l0.13,1.28c0.08,0.78.15,1.55,0.24,2.32,0.3,2.45.6,4.91,0.91,7.36,0.16,1.26.31,2.52,0.47,3.79,0.38,3.07.77,6.24,1.21,9.36l0.54,3.77c0.1,0.7.23,1.4,0.35,2.09l0.32,1.9c0.1,0.66.21,1.31,0.35,2l0.23,1c0.16,0.73.32,1.46,0.49,2.18l0.32,1.4c0.36,1.55.72,3.09,1.12,4.63,0.19,0.72.37,1.45,0.56,2.18,0.37,1.47.75,3,1.16,4.41q1.49,5.29,3,10.59l0,0.16v0.17a1.91,1.91,0,0,0,.25,1.14,2.35,2.35,0,0,0,.46.54,1.54,1.54,0,0,0,.31.21,2,2,0,0,0,.47.2,2.08,2.08,0,0,0,1.6-.21,2,2,0,0,0,.94-1.17,17.12,17.12,0,0,1,.72-2.54,31.65,31.65,0,0,1,1.53-2.93l0.56-1c0.45-.77.89-1.54,1.34-2.3A67,67,0,0,1,57.77,289a53.53,53.53,0,0,1,5-5.4c1.6-1.49,3.38-3,5.46-4.67,1.47-1.09,2.91-2.16,4.38-3.2,1.66-1.18,3.38-2.4,5.2-3.46s3.47-2,5.29-2.89l1-.48c0.65-.33,1.32-0.67,2-1l2.57-1.07c1.26-.44,2.55-0.89,3.86-1.27l0.52-.15c0.47-.15.95-0.29,1.43-0.4l2.8-.67c2.53-.61,5.12-1,7.63-1.4l0.84-.12c1.82-.22,3.63-0.44,5.45-0.62,2.44-.23,4.87-0.45,7.31-0.65,1.93-.16,4-0.3,6.31-0.43l2.76-.14c1.25-.06,2.5-0.12,3.75-0.21l3.78-.23c0.72,0,1.44-.13,2.17-0.2l0.92-.1c2-.2,4.19-0.48,6.56-0.85,5.41-.84,9.83-1.57,13.91-2.3s8.37-1.7,12.44-2.63l0.56-.13c0.61-.14,1.22-0.3,1.83-0.46l1.85-.46,2.16-.55,1.63-.43c1.44-.38,2.89-0.77,4.32-1.17l1.73-.47c1.61-.44,3.23-0.88,4.83-1.36l4-1.2c0.72-.22,1.42-0.47,2.12-0.72l1-.37c0.9-.31,1.8-0.67,2.59-1l1-.41c0.83-.32,1.69-0.66,2.48-1l3.74-1.79c0.63-.3,1.24-0.65,1.88-1l0.79-.45c0.81-.45,1.61-0.93,2.41-1.42l0.86-.51c0.62-.38,1.24-0.75,1.84-1.15l3.43-2.28c0.61-.4,1.19-0.83,1.77-1.26l0.7-.52a64.29,64.29,0,0,0,5.09-4.07,48.15,48.15,0,0,0,6.16-7.09,40.63,40.63,0,0,0,2.29-3.49,36.41,36.41,0,0,0,2.24-4.58,29.88,29.88,0,0,0,2-8.23l0.15-1.08c0.09-.72.19-1.45,0.24-2.16l0.25-3.84a4.26,4.26,0,0,0,0-.62l0-2.68C239.13,195.67,239.09,194.86,239,194Zm-4.74,2.52,0,2.39c0,0.81-.06,1.59-0.11,2.44,0,0.28,0,.56,0,0.84,0,0.65-.08,1.3-0.15,2l-0.31,2.59a34.19,34.19,0,0,1-1.9,7.17,40.23,40.23,0,0,1-4.74,7.82,47.55,47.55,0,0,1-3.64,4.13,43.14,43.14,0,0,1-4,3.46l-0.84.62c-1,.76-2.09,1.55-3.18,2.27l-3,2c-0.48.31-1,.61-1.46,0.9l-1.26.78c-0.47.3-.94,0.59-1.42,0.86l-3,1.7c-0.55.31-1.12,0.58-1.69,0.85l-3.37,1.57-2.4,1c-0.88.35-1.79,0.67-2.66,1l-0.71.24c-0.72.26-1.44,0.51-2.17,0.73L188.1,245c-1.49.45-3,.86-4.47,1.26l-2,.53c-2.09.58-3.85,1.06-5.64,1.51l-1.75.45c-1.5.38-3,.76-4.5,1.11l-1.73.4c-1.6.38-3.24,0.76-4.88,1.09l-0.83.17c-2,.4-4,0.81-6,1.16q-3.59.63-7.17,1.22c-3.12.51-6.31,1-9.47,1.42l-3.63.36c-0.77.08-1.55,0.12-2.32,0.17l-0.75,0q-1.85.12-3.69,0.21l-2.42.13c-5.32.29-9.39,0.59-13.19,1-2.63.26-5,.52-7.36,0.8-1.14.13-2.27,0.29-3.4,0.46l-0.9.14c-0.73.1-1.46,0.21-2.18,0.36l-3.63.73c-0.72.14-1.44,0.32-2.15,0.5l-1.14.28c-0.64.16-1.27,0.35-1.94,0.56l-1,.31c-0.33.09-.65,0.21-1,0.33l-0.55.2c-0.58.21-1.28,0.46-2,.76l-1,.42c-0.67.27-1.36,0.55-2,.86l-3.15,1.53c-0.3.14-.59,0.3-0.88,0.46l-0.93.48c-0.3.15-.6,0.3-0.88,0.47l-1,.55c-0.63.35-1.22,0.69-1.79,1.06-1.85,1.21-3.66,2.41-5.4,3.68-2.27,1.67-4.24,3.16-6,4.57-0.75.6-1.49,1.25-2.18,1.87l-0.37.34c-0.67.6-1.37,1.23-2,1.87-0.78.79-1.54,1.6-2.3,2.42-0.58.63-1.13,1.33-1.66,2l-0.36.44a63.29,63.29,0,0,0-6.67,10.77l-1.17,2.26L46,296.21c-0.78-2.78-1.45-5.23-2-7.51l-0.23-.9c-0.48-1.86-1-3.79-1.42-5.7q-0.78-3.41-1.5-6.83c-0.13-.63-0.22-1.27-0.32-1.91,0-.3-0.08-0.59-0.13-0.89l-0.16-1c-0.08-.47-0.16-1-0.23-1.42h0l-0.08-.59-0.6-4.43-0.17-1.24,0-.35-1.51-13.11c-0.22-1.91-.45-3.88-0.62-5.83l-0.33-3.66c-0.07-.81-0.11-1.62-0.15-2.43l-0.06-1.27c0-.57-0.05-1.14-0.07-1.71l0-1.45c0-.59,0-1.18,0-1.77l0-1.45c0-1.43,0-2.86,0-4.29,0-2.12.06-4.23,0.12-6.35,0-1.31.14-2.64,0.23-3.92l0.09-1.36,0.58-4.14a38.48,38.48,0,0,1,.93-4.43,43.17,43.17,0,0,1,1.9-5.65,61.22,61.22,0,0,1,3.8-7.42l0.55-.92c0.53-.89,1.08-1.81,1.67-2.69l0.69-1c0.53-.81,1.08-1.64,1.68-2.44l2.5-3.33c1-1.11,1.85-2.18,2.75-3.25l1.19-1.42c0.5-.59,1-1.15,1.55-1.7,0.25-.26.5-0.52,0.74-0.79l0.5-.54c0.43-.48.86-1,1.32-1.4L61.79,171c0.49-.49,1-0.94,1.52-1.37l0.44-.38,0.75-.66c0.55-.49,1.12-1,1.72-1.46L69,164.93l1.36-1,0,0,3.5-2.49c0.52-.38,1.05-0.76,1.58-1.12l0.88-.59c1.55-1,3.15-2.12,4.77-3.13l1-.61c0.67-.43,1.34-0.86,2-1.26l3.31-1.92c0.77-.44,1.53-0.88,2.31-1.29l0.93-.51c0.67-.36,1.33-0.73,2-1.06l1.17-.59c2.68-1.34,5.46-2.73,8.23-4l5.44-2.58c1-.49,2.08-0.95,3.13-1.41l1.76-.77c1.59-.66,3.24-1.34,4.88-2,2.33-.88,4.65-1.74,7-2.59,1.88-.68,3.77-1.36,5.66-2l0.76-.27c0.73-.25,1.45-0.51,2.19-0.74l1-.34c0.75-.25,1.5-0.5,2.25-0.71l0.5-.14c1.19-.34,2.43-0.69,3.67-1s2.65-.56,4.41-0.89c2.35-.44,4.61-0.79,7.33-1.18l0.86-.11c1.65-.21,3.37-0.43,5.07-0.52,2.09-.11,4.34-0.21,6.6-0.21s4.63,0,6.94,0c1,0,2.11,0,3.16.07l0.88,0c0.78,0,1.56.06,2.33,0.12l0.83,0.06c0.57,0,1.13.08,1.7,0.14l2.19,0.25c2.6,0.4,4.68.78,6.58,1.22,1,0.23,2,.53,3,0.82l0.63,0.19c0.74,0.22,1.46.5,2.15,0.76l0.84,0.32c1.05,0.45,2.12.92,3.19,1.44l0.35,0.17c0.44,0.21.88,0.43,1.31,0.67l2.32,1.29c0.42,0.24.83,0.5,1.24,0.76l0.52,0.33c0.55,0.34,1.09.7,1.64,1.07,1.07,0.73,2.12,1.52,3.1,2.26l2.44,2.05c0.59,0.5,1.16,1,1.73,1.55l0.44,0.42a51.5,51.5,0,0,1,5.55,5.89c0.8,1,1.41,1.92,2,2.78l1.55,2.43c0.54,0.85,1,1.74,1.5,2.61l0.57,1c0.46,0.83.89,1.7,1.31,2.53l0.56,1.11c0.4,0.78.75,1.58,1.1,2.35l0.48,1.14,0.84,2.21c0.19,0.49.38,1,.53,1.48l0.34,1.1c0.4,1.28.81,2.61,1.15,4l0.7,2.85c0.15,0.59.26,1.19,0.37,1.8,0.06,0.28.11,0.56,0.16,0.84,0.26,1.28.45,2.58,0.64,3.84l0.15,1.17c0.17,1.52.34,3.1,0.44,4.66,0.13,1.88.24,3.89,0.34,6.15C234.32,196,234.32,196.26,234.31,196.52Z" transform="translate(-33.33 -123.07)" style="fill:#333"/></svg>