<svg id="Слой_1" data-name="Слой 1" xmlns="http://www.w3.org/2000/svg" width="13.99cm" height="13.36cm" viewBox="0 0 396.6 378.68"><title>Стоимость ремонта строго</title><path d="M2949.89,2824.91a10.06,10.06,0,0,0-10.05,10v16.66a169.23,169.23,0,0,1-169.23,169.15h-0.11c-93.32-.05-169.2-76-169.14-169.34a169.26,169.26,0,0,1,169.24-169.15h0.1a168.46,168.46,0,0,1,68.79,14.65,10,10,0,1,0,8.17-18.35,188.24,188.24,0,0,0-76.95-16.39h-0.11a189.34,189.34,0,0,0-.11,378.68h0.12a189.35,189.35,0,0,0,189.33-189.24V2835A10.06,10.06,0,0,0,2949.89,2824.91Z" transform="translate(-2581.27 -2662.19)" style="fill:#fff"/><path d="M2974.92,2683.17a9.94,9.94,0,0,0-3.25-2.18,10.07,10.07,0,0,0-10.95,2.18L2770.6,2873.28l-46.68-46.68a10,10,0,1,0-14.21,14.2l53.79,53.79a10.06,10.06,0,0,0,14.21,0l197.21-197.22A10,10,0,0,0,2974.92,2683.17Z" transform="translate(-2581.27 -2662.19)" style="fill:#fdc00c"/></svg>