<svg id="Слой_1" data-name="Слой 1" xmlns="http://www.w3.org/2000/svg" width="14.45cm" height="9.85cm" viewBox="0 0 409.6 279.24"><title>Выездной ремонт</title><path d="M2243.55,3963.15l-59.72-49.46a8.22,8.22,0,0,0-5.34-1.91h-70.23v-30a8.36,8.36,0,0,0-8.34-8.34H1887.49a8.36,8.36,0,0,0-8.34,8.34v61.05a8.34,8.34,0,0,0,16.68,0v-52.71h195.83v197.75h-68.39a8.34,8.34,0,1,0,0,16.68h101.84a8.34,8.34,0,1,0,0-16.68h-16.76V3928.46h67.22l54.38,45-0.58,114.18h-8.68a8.35,8.35,0,0,0,0,16.69h16.93a8.29,8.29,0,0,0,8.34-8.26l0.67-126.44A8.83,8.83,0,0,0,2243.55,3963.15Zm-331,124.69h-16.77v-22.19a8.34,8.34,0,0,0-16.68,0v30.53a8.36,8.36,0,0,0,8.34,8.34h25.11A8.34,8.34,0,0,0,1912.6,4087.84Zm55.63-10.26a37.81,37.81,0,0,0-26.69,11,37.06,37.06,0,0,0,0,53,38,38,0,0,0,26.69,11A37.54,37.54,0,0,0,1968.23,4077.58Zm0,58.39c-11.51,0-21.19-9.51-21.19-20.85s9.68-20.86,21.19-20.86A20.86,20.86,0,0,1,1968.23,4136Zm238.45-160.81-25.11-22.6a8.08,8.08,0,0,0-5.58-2.17H2133.2a8.36,8.36,0,0,0-8.34,8.34v68.39a8.36,8.36,0,0,0,8.34,8.34h67.89a8.36,8.36,0,0,0,8.34-8.34v-45.79A8.36,8.36,0,0,0,2206.68,3975.16Zm-13.93,43.62h-51.21V3967h31.19l20,18v33.78Zm-20.85,58.8a37.81,37.81,0,0,0-26.69,11,37.06,37.06,0,0,0,0,53,38,38,0,0,0,26.69,11A37.54,37.54,0,0,0,2171.9,4077.58Zm0,58.39c-11.51,0-21.19-9.51-21.19-20.85s9.68-20.86,21.19-20.86A20.86,20.86,0,0,1,2171.9,4136Z" transform="translate(-1837.03 -3873.41)" style="fill:#fff"/><path d="M1954.88,4042.39a8.31,8.31,0,0,1-8.34,8.34H1845.37a8.34,8.34,0,1,1,0-16.68h101.17A8.36,8.36,0,0,1,1954.88,4042.39Z" transform="translate(-1837.03 -3873.41)" style="fill:#fdc00c"/><path d="M1971.9,4004.6a8.43,8.43,0,0,1-8.43,8.26l-101.17-.58a8.34,8.34,0,0,1,.09-16.68h0.08l101.17,0.58A8.26,8.26,0,0,1,1971.9,4004.6Z" transform="translate(-1837.03 -3873.41)" style="fill:#fdc00c"/><path d="M1988.83,3966.07a8.37,8.37,0,0,1-8.34,8.34H1879.32a8.34,8.34,0,1,1,0-16.68h101.17A8.37,8.37,0,0,1,1988.83,3966.07Z" transform="translate(-1837.03 -3873.41)" style="fill:#fdc00c"/></svg>