<svg id="Слой_1" data-name="Слой 1" xmlns="http://www.w3.org/2000/svg" width="11.78cm" height="14.45cm" viewBox="0 0 334 409.6"><title>Бесплатная наклейка</title><path d="M2669.81,4609a10.18,10.18,0,0,0-10.15-10.15h-81.34a10.15,10.15,0,1,0,0,20.29h81.34a10.18,10.18,0,0,0,10.15-10.14h0Zm0,0" transform="translate(-2568.17 -4441.96)" style="fill:#fdc00c"/><path d="M2892,4598.81h-81.35a10.15,10.15,0,0,0,0,20.29H2892a10.15,10.15,0,0,0,0-20.29h0Zm0,0" transform="translate(-2568.17 -4441.96)" style="fill:#fdc00c"/><path d="M2735.18,4543.6a10.18,10.18,0,0,0,10.14-10.15v-81.34a10.15,10.15,0,1,0-20.29,0v81.34a10.18,10.18,0,0,0,10.15,10.15h0Zm0,0" transform="translate(-2568.17 -4441.96)" style="fill:#fdc00c"/><path d="M2788.53,4565.75a10.33,10.33,0,0,0,7.19-3l57.58-57.58a10.16,10.16,0,1,0-14.38-14.37l-57.58,57.58a10.15,10.15,0,0,0,0,14.38,10.47,10.47,0,0,0,7.19,3h0Zm0,0" transform="translate(-2568.17 -4441.96)" style="fill:#fdc00c"/><path d="M2674.63,4562.79a10.18,10.18,0,0,0,7.19,3,10.32,10.32,0,0,0,7.19-3,10.15,10.15,0,0,0,0-14.38l-57.58-57.58a10.16,10.16,0,1,0-14.37,14.37Zm0,0" transform="translate(-2568.17 -4441.96)" style="fill:#fdc00c"/><path d="M2857.11,4673a42.11,42.11,0,0,0-27.31-10.23H2771.7v-41c0-19.62-5.84-33.91-17.42-42.45-18.26-13.36-43-5.84-44.14-5.5a10.15,10.15,0,0,0-7.1,9.64v49.47c0,15.05-7.19,27.82-21.48,38.05a86.68,86.68,0,0,1-23.34,11.75l-1,.25a20.76,20.76,0,0,0-15.64-7H2603a20.93,20.93,0,0,0-20.89,20.89v126.5A20.93,20.93,0,0,0,2603,4844.2h38.73a20.59,20.59,0,0,0,13.36-4.9,42.6,42.6,0,0,0,29.76,12.26H2806c12.18,0,22.91-3,31.12-8.46,10.48-7.1,17-18.35,18.86-32.72l15.64-97.24a43.74,43.74,0,0,0-14.55-40.17h0Zm-214.78,150.35a0.58,0.58,0,0,1-.59.59H2603a0.58,0.58,0,0,1-.59-0.59v-126.5a0.58,0.58,0,0,1,.59-0.59h38.73a0.58,0.58,0,0,1,.59.59v126.5ZM2851.61,4710L2836,4807.42a0.9,0.9,0,0,1-.09.42c-0.68,5.84-2.87,23.51-29.85,23.51H2684.86a22.48,22.48,0,0,1-22-18.86c-0.09-.43-0.17-0.85-0.25-1.18V4702.57l0.59-.17c0.17,0,.25-0.08.42-0.08a103.2,103.2,0,0,0,29.26-14.46c19.87-14.12,30.44-33.15,30.44-55v-41.1c5.58-.59,13.28-0.34,18.94,3.81,6.09,4.48,9.13,13.28,9.13,26v51.16a10.18,10.18,0,0,0,10.14,10.15h68.24a22.23,22.23,0,0,1,14.12,5.32,23.86,23.86,0,0,1,7.69,21.73h0Zm0,0" transform="translate(-2568.17 -4441.96)" style="fill:#fff"/></svg>