<svg id="Слой_1" data-name="Слой 1" xmlns="http://www.w3.org/2000/svg" width="14.45cm" height="12.3cm" viewBox="0 0 409.6 348.53"><title>Бесплатная консультация</title><path d="M2905.21,3482.52V3332.1a37.88,37.88,0,0,0-37.81-37.81H2612.74a37.88,37.88,0,0,0-37.81,37.81v150.42a37.88,37.88,0,0,0,37.81,37.82h10.79v45.34a15.19,15.19,0,0,0,26.69,9.87l47.77-55.3h169.5a37.74,37.74,0,0,0,37.73-37.73h0Zm-212,17.32a10.29,10.29,0,0,0-7.78,3.51l-41.5,47.94V3510a10.28,10.28,0,0,0-10.29-10.29h-20.92a17.35,17.35,0,0,1-17.32-17.32V3332.1a17.35,17.35,0,0,1,17.32-17.32H2867.4a17.35,17.35,0,0,1,17.32,17.32v150.42a17.35,17.35,0,0,1-17.32,17.32H2693.22Zm0,0" transform="translate(-2574.93 -3294.28)" style="fill:#fff"/><path d="M2909.32,3637.54a14.94,14.94,0,0,0,11.37,5.27,15.33,15.33,0,0,0,15.23-15.23v-45.34h10.79a37.88,37.88,0,0,0,37.82-37.81V3394a37.88,37.88,0,0,0-37.82-37.81,10.25,10.25,0,1,0,0,20.5A17.35,17.35,0,0,1,2964,3394v150.42a17.35,17.35,0,0,1-17.32,17.32h-21a10.28,10.28,0,0,0-10.29,10.29v41.25l-41.5-47.94a10.16,10.16,0,0,0-7.78-3.51H2712.21a10.29,10.29,0,0,0,0,20.58h149.25Zm0,0" transform="translate(-2574.93 -3294.28)" style="fill:#fdc00c"/><path d="M2752.28,3410.91a12.21,12.21,0,1,1-12.21-12.21,12.21,12.21,0,0,1,12.21,12.21h0Zm0,0" transform="translate(-2574.93 -3294.28)" style="fill:#fdc00c"/><path d="M2793.2,3410.91a12.21,12.21,0,1,1-12.21-12.21,12.22,12.22,0,0,1,12.21,12.21h0Zm0,0" transform="translate(-2574.93 -3294.28)" style="fill:#fdc00c"/><path d="M2711.37,3410.91a12.21,12.21,0,1,1-12.21-12.21,12.22,12.22,0,0,1,12.21,12.21h0Zm0,0" transform="translate(-2574.93 -3294.28)" style="fill:#fdc00c"/></svg>