<svg id="Слой_1" data-name="Слой 1" xmlns="http://www.w3.org/2000/svg" width="12.18cm" height="14.31cm" viewBox="0 0 345.31 405.6"><title>Гарантия</title><path d="M2292.44,2702.27a668.56,668.56,0,0,1-84.26-29.38,681.2,681.2,0,0,1-80.16-40.36,6.61,6.61,0,0,0-6.73,0,665,665,0,0,1-164.42,69.74,6.63,6.63,0,0,0-4.87,6.38v88c0,90,41.5,149.51,76.31,183.62,37.4,36.65,80.71,56.91,96.35,56.91s58.95-20.26,96.34-56.91c34.81-34.1,76.31-93.64,76.31-183.62v-88A6.63,6.63,0,0,0,2292.44,2702.27Zm-8.36,94.41c0,85.38-39.34,141.84-72.34,174.17-37.54,36.79-78,53.13-87.08,53.13s-49.54-16.34-87.09-53.13c-33-32.33-72.34-88.79-72.34-174.17v-83l1.46-.42a675.5,675.5,0,0,0,157-66.78l1-.58,1,0.58a699.49,699.49,0,0,0,157,66.78l1.45,0.41v83Z" transform="translate(-1952 -2631.61)" style="fill:#fff"/><path d="M2210.6,2788l-97.15,95.15-0.36.36-0.28.27-0.33.27-0.27.21a7.92,7.92,0,0,1-2.84,1.31l-0.35.07c-0.22,0-.43.08-0.66,0.1h-0.1l-0.19,0a9.71,9.71,0,0,1-1.08,0l-0.28,0a7,7,0,0,1-1.26-.22c-0.18-.06-0.37-0.1-0.54-0.17l-0.11,0-0.51-.2a0.2,0.2,0,0,1-.08,0l-0.12-.05-0.44-.23a5.26,5.26,0,0,1-.61-0.37l-0.6-.44-51.5-42.06a8,8,0,1,1,10.13-12.39l45.95,37.52,92.38-90.48A8,8,0,1,1,2210.6,2788Z" transform="translate(-1952 -2631.61)" style="fill:#fdc00c"/></svg>