<svg id="Слой_1" data-name="Слой 1" xmlns="http://www.w3.org/2000/svg" width="6.08cm" height="6.08cm" viewBox="0 0 172.22 172.22"><title>imessage</title><path d="M5037.22,1801.44a86.11,86.11,0,1,1-86.11-86.11,86.11,86.11,0,0,1,86.11,86.11h0Zm0,0" transform="translate(-4865 -1715.33)" style="fill:#fff;opacity:0"/><path d="M4942.79,2005.68q-3-1.53-5.86-3.14S4939.62,2002.66,4942.79,2005.68Z" transform="translate(-4865 -1715.33)" style="fill:#8e8e8e"/><path d="M5003.66,1799.89c0,22.61-22.63,40.95-50.55,40.95a62.53,62.53,0,0,1-7.89-.5h0c-0.49-.05-6.43-0.68-9.74,1.15s-5.15,3.9-11.63,6c0,0-4.86,1.62-2.87-1.1,0,0,6.58-6.25,6-9.34-0.29-1.49-.69-2.28-1.2-2.61l-0.89-.55c-13.44-7.36-22.28-19.82-22.28-33.95,0-22.61,22.63-40.94,50.55-40.94S5003.66,1777.28,5003.66,1799.89Z" transform="translate(-4865 -1715.33)" style="fill:#fff"/></svg>