<svg id="Слой_1" data-name="Слой 1" xmlns="http://www.w3.org/2000/svg" width="2.53cm" height="2.53cm" viewBox="0 0 71.8 71.8"><title>insta</title><path d="M2135.6,2818.39h-21.4a6.2,6.2,0,0,0-6.2,6.2V2846a6.2,6.2,0,0,0,6.2,6.2h21.4a6.21,6.21,0,0,0,6.2-6.2v-21.4a6.2,6.2,0,0,0-6.2-6.2h0Zm-10.7,28a11.12,11.12,0,1,1,11.13-11.12,11.14,11.14,0,0,1-11.12,11.12h0Zm11.49-19.95a2.63,2.63,0,1,1,2.63-2.63,2.63,2.63,0,0,1-2.63,2.63h0Zm0,0" transform="translate(-2089 -2799.29)" style="fill:#888"/><path d="M2124.9,2828.87a6.42,6.42,0,1,0,6.43,6.42,6.43,6.43,0,0,0-6.43-6.42h0Zm0,0" transform="translate(-2089 -2799.29)" style="fill:#888"/><path d="M2124.9,2799.29a35.9,35.9,0,1,0,35.9,35.9,35.9,35.9,0,0,0-35.9-35.9h0Zm21.6,46.7a10.91,10.91,0,0,1-10.9,10.9h-21.4a10.91,10.91,0,0,1-10.9-10.9v-21.4a10.91,10.91,0,0,1,10.9-10.9h21.4a10.91,10.91,0,0,1,10.9,10.9V2846Zm0,0" transform="translate(-2089 -2799.29)" style="fill:#888"/></svg>