<svg id="Слой_1" data-name="Слой 1" xmlns="http://www.w3.org/2000/svg" width="6.08cm" height="6.08cm" viewBox="0 0 172.22 172.21"><title>insta</title><g style="opacity:0"><path d="M4805.79,1791.95a86.11,86.11,0,1,1-86.11-86.11A86.11,86.11,0,0,1,4805.79,1791.95Z" transform="translate(-4633.57 -1705.84)" style="fill:#fff"/></g><path d="M4737.14,1754.66h-34.93a21.54,21.54,0,0,0-21.52,21.52v34.93a21.54,21.54,0,0,0,21.52,21.52h34.93a21.54,21.54,0,0,0,21.52-21.52v-34.93a21.54,21.54,0,0,0-21.52-21.52h0Zm14.6,56.45a14.61,14.61,0,0,1-14.6,14.6h-34.93a14.61,14.61,0,0,1-14.6-14.6v-34.93a14.61,14.61,0,0,1,14.6-14.6h34.93a14.61,14.61,0,0,1,14.6,14.6v34.93Zm0,0" transform="translate(-4633.57 -1705.84)" style="fill:#fff"/><path d="M4719.68,1773.56a20.09,20.09,0,1,0,20.09,20.09,20.11,20.11,0,0,0-20.09-20.09h0Zm0,33.26a13.17,13.17,0,1,1,13.17-13.17,13.19,13.19,0,0,1-13.17,13.17h0Zm0,0" transform="translate(-4633.57 -1705.84)" style="fill:#fff"/><path d="M4740.61,1767.69a5.07,5.07,0,1,0,3.59,1.48,5.09,5.09,0,0,0-3.59-1.48h0Zm0,0" transform="translate(-4633.57 -1705.84)" style="fill:#fff"/></svg>