<svg id="Слой_1" data-name="Слой 1" xmlns="http://www.w3.org/2000/svg" width="12.13cm" height="2.34cm" viewBox="0 0 343.71 66.33"><title>logo</title><circle cx="33.17" cy="33.17" r="33.17" style="fill:#fed919"/><path d="M442.48,333.54H427.77a5.19,5.19,0,0,1-5.19-5.19V313.64a5.19,5.19,0,0,1,5.19-5.19h14.71a5.19,5.19,0,0,1,5.19,5.19v14.71A5.19,5.19,0,0,1,442.48,333.54Zm-14.71-22.09a2.19,2.19,0,0,0-2.19,2.19v14.71a2.19,2.19,0,0,0,2.19,2.19h14.71a2.19,2.19,0,0,0,2.19-2.19V313.64a2.19,2.19,0,0,0-2.19-2.19H427.77Z" transform="translate(-402.33 -287.83)"/><path d="M490.53,306.9l8.41,22.34,8.39-22.34h6.55V336h-5v-9.61l0.5-12.85L500.72,336H497.1l-8.59-22.44,0.5,12.83V336h-5V306.9h6.57Z" transform="translate(-402.33 -287.83)"/><path d="M519.09,325a13.38,13.38,0,0,1,.69-4.37,10.38,10.38,0,0,1,2-3.49,9.09,9.09,0,0,1,3.15-2.32,10.16,10.16,0,0,1,4.22-.84,10.35,10.35,0,0,1,4.26.84,9,9,0,0,1,3.17,2.32,10.25,10.25,0,0,1,2,3.49,13.58,13.58,0,0,1,.68,4.37v0.42a13.66,13.66,0,0,1-.68,4.38,10.13,10.13,0,0,1-2,3.49,9,9,0,0,1-3.16,2.3,11.25,11.25,0,0,1-8.49,0,9,9,0,0,1-3.16-2.3,10.26,10.26,0,0,1-2-3.49,13.46,13.46,0,0,1-.69-4.38V325Zm4.86,0.42a12.25,12.25,0,0,0,.3,2.76,6.9,6.9,0,0,0,.94,2.27,4.93,4.93,0,0,0,6.32,1.53,4.62,4.62,0,0,0,1.62-1.53,7.21,7.21,0,0,0,.94-2.27,11.89,11.89,0,0,0,.31-2.76V325a11.69,11.69,0,0,0-.31-2.73,7.1,7.1,0,0,0-1-2.26,4.9,4.9,0,0,0-1.63-1.55,4.57,4.57,0,0,0-2.35-.58,4.47,4.47,0,0,0-2.33.58A5,5,0,0,0,525.2,320a6.91,6.91,0,0,0-.94,2.26A12,12,0,0,0,524,325v0.42Z" transform="translate(-402.33 -287.83)"/><path d="M563,325.43a16.8,16.8,0,0,1-.55,4.42,10.62,10.62,0,0,1-1.61,3.48,7.49,7.49,0,0,1-2.64,2.28,8.59,8.59,0,0,1-7.09.11,6.93,6.93,0,0,1-2.48-2L548.35,336H544V305.29h4.86v11.17a7,7,0,0,1,2.41-1.84,7.71,7.71,0,0,1,3.25-.64,8,8,0,0,1,3.68.81,7.49,7.49,0,0,1,2.65,2.27,10.35,10.35,0,0,1,1.61,3.49A17.3,17.3,0,0,1,563,325v0.42ZM558.1,325a15.34,15.34,0,0,0-.23-2.7,6.81,6.81,0,0,0-.79-2.24,4.32,4.32,0,0,0-1.49-1.53,4.39,4.39,0,0,0-2.33-.57,4.78,4.78,0,0,0-2.78.75,4.88,4.88,0,0,0-1.66,2v8.93a5.06,5.06,0,0,0,1.67,2,4.72,4.72,0,0,0,2.81.78,4.33,4.33,0,0,0,2.26-.55,4.28,4.28,0,0,0,1.49-1.5,6.69,6.69,0,0,0,.81-2.23,15,15,0,0,0,.24-2.76V325Z" transform="translate(-402.33 -287.83)"/><path d="M567.67,308.76a2.58,2.58,0,0,1,.71-1.86,2.69,2.69,0,0,1,2-.74,2.72,2.72,0,0,1,2,.74,2.56,2.56,0,0,1,.72,1.86,2.5,2.5,0,0,1-.72,1.83,2.74,2.74,0,0,1-2,.73,2.7,2.7,0,0,1-2-.73A2.52,2.52,0,0,1,567.67,308.76ZM572.83,336H568V314.38h4.86V336Z" transform="translate(-402.33 -287.83)"/><path d="M583.92,336h-4.86V305.29h4.86V336Z" transform="translate(-402.33 -287.83)"/><path d="M599.37,336.45a11.15,11.15,0,0,1-4.32-.8,9.51,9.51,0,0,1-3.26-2.2,9.63,9.63,0,0,1-2.06-3.32A11.71,11.71,0,0,1,589,326v-0.8a13.36,13.36,0,0,1,.76-4.63,10.57,10.57,0,0,1,2.08-3.52,9.18,9.18,0,0,1,3.11-2.24,9.43,9.43,0,0,1,3.85-.79,9.85,9.85,0,0,1,4.1.79,7.74,7.74,0,0,1,2.88,2.21,9.51,9.51,0,0,1,1.7,3.38,15.63,15.63,0,0,1,.56,4.3v2.08H593.9a7.76,7.76,0,0,0,.53,2.32,5.7,5.7,0,0,0,1.17,1.83,5.38,5.38,0,0,0,1.75,1.21,5.68,5.68,0,0,0,2.29.44,6.49,6.49,0,0,0,3.13-.72,7.35,7.35,0,0,0,2.31-2l2.62,2.5a8.93,8.93,0,0,1-1.29,1.51,8.77,8.77,0,0,1-1.8,1.3,10.33,10.33,0,0,1-2.33.92A11.26,11.26,0,0,1,599.37,336.45Zm-0.58-18.56a4.1,4.1,0,0,0-3.23,1.4,7.27,7.27,0,0,0-1.57,3.9h9.27v-0.36a8.89,8.89,0,0,0-.31-1.85,4.75,4.75,0,0,0-.77-1.58,3.73,3.73,0,0,0-1.35-1.1A4.56,4.56,0,0,0,598.79,317.89Z" transform="translate(-402.33 -287.83)"/><path d="M616.58,333.31V323h12v-2.49h-12v-9.43h13.76v-2.49H613.42v27.22h17.12v-2.48h-14Z" transform="translate(-402.33 -287.83)"/><path d="M643.53,325.63l6.58-9.94H646.6l-4.71,7.76-4.65-7.76h-3.47l6.57,9.94-6.78,10.16H637l4.9-7.93,4.9,7.93h3.47Z" transform="translate(-402.33 -287.83)"/><path d="M669.55,318a6.84,6.84,0,0,0-5.68-2.7,7.06,7.06,0,0,0-5.78,2.57l-0.4.49-0.2-2.68h-2.74v28h3V333.4l0.43,0.48a7.37,7.37,0,0,0,5.72,2.3,6.71,6.71,0,0,0,5.63-2.78,12.17,12.17,0,0,0,2.1-7.43v-0.32C671.66,322.39,671,319.82,669.55,318Zm-2.46,13.68a5,5,0,0,1-4.23,2.11,5.42,5.42,0,0,1-5-3l0,0v-10l0-.06a5.43,5.43,0,0,1,5-3,5,5,0,0,1,4.28,2.12,9.35,9.35,0,0,1,1.54,5.65A10.19,10.19,0,0,1,667.09,331.69Z" transform="translate(-402.33 -287.83)"/><path d="M685,315.31a5.22,5.22,0,0,0-4.71,2.64l-0.44.71-0.07-3h-2.93v20.1h3l0-14.47a4.88,4.88,0,0,1,4.93-3.1,11.7,11.7,0,0,1,1.49.09v-2.82A3.85,3.85,0,0,0,685,315.31Z" transform="translate(-402.33 -287.83)"/><path d="M705.94,325.29c0-3.22-.73-5.71-2.17-7.42a7.48,7.48,0,0,0-6.05-2.56,8,8,0,0,0-4.42,1.32,8.93,8.93,0,0,0-3.19,3.67,12.18,12.18,0,0,0-1.15,5.37v0.64a10,10,0,0,0,2.56,7.19,8.8,8.8,0,0,0,6.64,2.68,8.46,8.46,0,0,0,7.43-3.68l-1.77-1.38a8.25,8.25,0,0,1-2.18,1.88,6.41,6.41,0,0,1-3.29.8,5.86,5.86,0,0,1-4.52-2,7.59,7.59,0,0,1-1.84-5.08V326.5h14v-1.21Zm-3-1.18H692.07l0-.28a7.84,7.84,0,0,1,1.86-4.49,4.93,4.93,0,0,1,3.76-1.64,4.7,4.7,0,0,1,3.69,1.56,7,7,0,0,1,1.51,4.32v0.53Z" transform="translate(-402.33 -287.83)"/><path d="M725,327.67a6,6,0,0,0-2.34-1.89,18,18,0,0,0-4.21-1.39,12.65,12.65,0,0,1-3.73-1.27,2.38,2.38,0,0,1-1.12-2.14,2.88,2.88,0,0,1,1.18-2.39,5.07,5.07,0,0,1,3.16-.89,4.91,4.91,0,0,1,3.26,1.11,3.45,3.45,0,0,1,1.3,2.44h3a5.48,5.48,0,0,0-2.09-4.19,8.41,8.41,0,0,0-5.52-1.75,8.21,8.21,0,0,0-5.32,1.69,5.14,5.14,0,0,0-2,4.1,4.31,4.31,0,0,0,.71,2.48,6,6,0,0,0,2.23,1.83,17.36,17.36,0,0,0,4.19,1.34,10.64,10.64,0,0,1,3.84,1.41,2.82,2.82,0,0,1,1.18,2.42,2.73,2.73,0,0,1-1.32,2.37,6,6,0,0,1-3.35.85,5.78,5.78,0,0,1-3.64-1.09,3.87,3.87,0,0,1-1.5-2.76h-3a5.7,5.7,0,0,0,1,3,6.88,6.88,0,0,0,2.88,2.36,10.11,10.11,0,0,0,4.27.86,9.11,9.11,0,0,0,5.59-1.62,5,5,0,0,0,2.1-4.23A4.63,4.63,0,0,0,725,327.67Z" transform="translate(-402.33 -287.83)"/><path d="M745.29,327.67a6,6,0,0,0-2.33-1.89,18.25,18.25,0,0,0-4.22-1.39,12.88,12.88,0,0,1-3.73-1.27,2.4,2.4,0,0,1-1.12-2.14,2.91,2.91,0,0,1,1.18-2.39,5.09,5.09,0,0,1,3.16-.89,4.9,4.9,0,0,1,3.26,1.11,3.5,3.5,0,0,1,1.31,2.44h3a5.5,5.5,0,0,0-2.08-4.19,8.42,8.42,0,0,0-5.53-1.75,8.16,8.16,0,0,0-5.31,1.69,5.14,5.14,0,0,0-2,4.1,4.23,4.23,0,0,0,.71,2.48,5.81,5.81,0,0,0,2.23,1.83,17.42,17.42,0,0,0,4.18,1.34,10.7,10.7,0,0,1,3.85,1.41,2.85,2.85,0,0,1,1.18,2.42A2.75,2.75,0,0,1,741.7,333a6,6,0,0,1-3.35.85,5.79,5.79,0,0,1-3.65-1.09,3.87,3.87,0,0,1-1.5-2.76h-3a5.69,5.69,0,0,0,1,3,6.88,6.88,0,0,0,2.88,2.36,10.12,10.12,0,0,0,4.28.86,9.08,9.08,0,0,0,5.58-1.62,5,5,0,0,0,2.11-4.23A4.56,4.56,0,0,0,745.29,327.67Z" transform="translate(-402.33 -287.83)"/></svg>