<svg id="Слой_1" data-name="Слой 1" xmlns="http://www.w3.org/2000/svg" width="14cm" height="14cm" viewBox="0 0 396.85 396.86"><title>Оригинальные запчасти</title><path d="M2985.83,2789.66h-37.24a14.79,14.79,0,0,1-10.46-25.25l26.33-26.33a19.81,19.81,0,0,0,5.83-14.1,20,20,0,0,0-5.83-14.16l-33.56-33.56c-7.53-7.52-20.73-7.52-28.26,0l-26.33,26.33a14.8,14.8,0,0,1-25.25-10.45V2654.9a20,20,0,0,0-20-20h-47.46a20,20,0,0,0-20,20v37.24a14.79,14.79,0,0,1-25.25,10.45l-26.33-26.33c-7.53-7.52-20.73-7.52-28.26,0l-33.56,33.56a20,20,0,0,0,0,28.26l26.33,26.33a14.79,14.79,0,0,1-10.46,25.25h-37.23a20,20,0,0,0-20,20v47.46a20,20,0,0,0,20,20h37.23a14.8,14.8,0,0,1,10.46,25.25l-26.33,26.33a20,20,0,0,0,0,28.26l33.56,33.56c7.53,7.53,20.73,7.53,28.26,0l26.33-26.33a14.44,14.44,0,0,1,10.29-4.38,15.27,15.27,0,0,1,5.84,1.18,14.43,14.43,0,0,1,9.12,13.67v37.23a20,20,0,0,0,20,20h47.46a20,20,0,0,0,20-20v-37.23a14.79,14.79,0,0,1,25.25-10.47l26.33,26.33c7.53,7.53,20.73,7.53,28.26,0l33.56-33.56a20,20,0,0,0,0-28.26l-26.33-26.33a14.8,14.8,0,0,1,10.46-25.25h37.24a20,20,0,0,0,20-20v-47.46A20,20,0,0,0,2985.83,2789.66Zm6.25,67.43a6.25,6.25,0,0,1-6.25,6.25h-37.24a28.52,28.52,0,0,0-20.15,48.69l26.29,26.33a6.08,6.08,0,0,1,1.85,4.38,6.21,6.21,0,0,1-1.85,4.46l-33.52,33.52a6.3,6.3,0,0,1-4.45,1.84h-0.06a6.12,6.12,0,0,1-4.34-1.84L2886,2954.43a28.52,28.52,0,0,0-48.69,20.16v37.23a6.27,6.27,0,0,1-6.26,6.26h-47.46a6.27,6.27,0,0,1-6.25-6.26v-37.23a28.05,28.05,0,0,0-17.61-26.35,28.7,28.7,0,0,0-11.1-2.27,28.13,28.13,0,0,0-20,8.42l-26.3,26.33a6.31,6.31,0,0,1-8.88,0L2660,2947.2a6.34,6.34,0,0,1,0-8.87l26.33-26.3a28.54,28.54,0,0,0-20.19-48.69h-37.23a6.24,6.24,0,0,1-6.22-6.25v-47.46a6.25,6.25,0,0,1,6.22-6.26h37.23a28.53,28.53,0,0,0,20.19-48.67L2660,2728.39a6.35,6.35,0,0,1,0-8.87l33.52-33.53a6.36,6.36,0,0,1,8.88,0l26.3,26.3a28.51,28.51,0,0,0,48.68-20.15V2654.9a6.25,6.25,0,0,1,6.25-6.22h47.46a6.25,6.25,0,0,1,6.26,6.22v37.24a28.53,28.53,0,0,0,48.69,20.18l26.33-26.33a6.25,6.25,0,0,1,8.84,0l33.52,33.56a6.2,6.2,0,0,1,0,8.84l-26.29,26.3a28.54,28.54,0,0,0,20.15,48.72h37.24a6,6,0,0,1,4.4,1.79,6.17,6.17,0,0,1,1.85,4.43v47.46Z" transform="translate(-2608.94 -2634.93)" style="fill:#fff"/><path d="M2807.39,2767.53a65.83,65.83,0,1,0,65.8,65.85A65.92,65.92,0,0,0,2807.39,2767.53Zm0,117.9a52.07,52.07,0,1,1,52-52.05A52.13,52.13,0,0,1,2807.39,2885.43Z" transform="translate(-2608.94 -2634.93)" style="fill:#fdc00c"/></svg>