<svg id="Слой_1" data-name="Слой 1" xmlns="http://www.w3.org/2000/svg" width="11.84cm" height="14.45cm" viewBox="0 0 335.69 409.6"><title>Оригинальные запчасти Apple</title><path d="M2036.08,4576.15c0.64,0,1.29,0,1.93,0h0c22.75,0,47.43-12.82,62.87-32.67,15.94-20.45,23.18-45,19.87-67.31a9.87,9.87,0,0,0-10.45-8.39c-22.42,1.57-47.79,15.2-63.15,33.91-16.7,20.34-24.36,45.15-20.47,66.34a9.87,9.87,0,0,0,9.4,8.09h0Zm26.33-61.91c9.52-11.61,24.94-21.2,39.38-25-0.69,19.64-11.35,35.6-16.48,42.18-10,12.8-25.3,22-39.92,24.43,0.29-19.53,12.75-36.37,17-41.57h0Zm0,0" transform="translate(-1873.83 -4467.78)" style="fill:#fdc00c"/><path d="M2208.77,4765.61a9.88,9.88,0,0,0-5.63-5.45c-40.64-15.32-53.37-59.37-41.86-91.4,5.7-15.89,16.9-28.8,32.39-37.34a9.87,9.87,0,0,0,2.94-14.82c-20.6-25.71-49.88-41.05-78.33-41.05-19.92,0-33.4,5.11-45.3,9.62-8.76,3.32-16.33,6.19-25,6.19-9.6,0-18.35-3.13-28.48-6.77-11.85-4.24-25.27-9.05-42.06-9.05-32.34,0-65.12,19.56-85.55,51.06-7.56,11.72-12.86,26.2-15.77,43-8.16,47.93,5.67,105,37,152.78,17.76,27,40.16,54.67,71.49,54.94h0.64c13,0,21.83-3.92,30.32-7.71,9-4,17.44-7.79,32.8-7.87h0.5c15.06,0,23.27,3.77,32,7.75,8.32,3.82,16.93,7.77,29.95,7.77h0.59c30.7-.26,54-29.35,72.67-57.8,11.5-17.62,15.89-26.62,24.61-46.06a9.89,9.89,0,0,0,.11-7.83h0Zm-41.23,43.07c-14.91,22.66-34.78,48.7-56.34,48.88h-0.42c-8.7,0-14.44-2.63-21.71-6-9.27-4.25-20.81-9.55-40.19-9.55h-0.61c-19.5.1-31.28,5.36-40.74,9.59-7.5,3.35-13.43,6-22.27,6h-0.46c-22.19-.19-41.14-24.71-55.18-46-28.66-43.67-41.38-95.49-34-138.61,2.44-14.2,6.78-26.2,12.88-35.65,16.82-25.93,43.25-42,69-42,13.35,0,24.06,3.84,35.4,7.89,10.88,3.89,22.11,7.92,35.14,7.92,12.29,0,22.31-3.8,32-7.47,10.82-4.1,22-8.34,38.3-8.34,19.4,0,39.54,9.34,55.55,25.4a87.23,87.23,0,0,0-31.13,41.4c-15.63,43.45,3.93,91.62,43.86,112.27a230.88,230.88,0,0,1-19,34.33h0Zm0,0" transform="translate(-1873.83 -4467.78)" style="fill:#fff"/></svg>