<svg id="Режим_изоляции" data-name="Режим изоляции" xmlns="http://www.w3.org/2000/svg" width="6.68cm" height="8.32cm" viewBox="0 0 189.4 235.73"><title>К вам приедет наш мастер</title><path d="M2535.6,2759.07a2.8,2.8,0,0,0,2.8-2.8v-26.61a17.91,17.91,0,0,0-18.07-17.71H2366.94a17.64,17.64,0,0,0-17.94,17.71v169.68a18.11,18.11,0,0,0,17.94,18.22h38.27v27.33a2.79,2.79,0,0,0,1.32,2.38,2.85,2.85,0,0,0,2.73.12l19-9.5,19,9.5a2.8,2.8,0,0,0,4.05-2.5v-27.34l69-.12a18.11,18.11,0,0,0,18.07-18.09v-26.61a2.8,2.8,0,0,0-2.8-2.8H2508V2759.07h27.58ZM2508,2729.91a12.4,12.4,0,0,1,24.79-.25v23.81H2508v-23.56Zm-62.31,210.45-16.2-8.1a2.82,2.82,0,0,0-2.5,0l-16.21,8.1v-48.17l1.49,0.83a33.07,33.07,0,0,0,31.95.19l1.47-.8v47.95Zm1.7-56.33-0.22.16a2.81,2.81,0,0,0-1,.87l-0.18.2A27.76,27.76,0,1,1,2447.41,2884Zm3.9,27.93v-23.9l0.3-.3a33.18,33.18,0,1,0-46.69-.33l0.29,0.29V2912h-38.27a12.5,12.5,0,0,1-12.35-12.62V2729.66a12.11,12.11,0,0,1,12.35-12.11h140.29l-1.2,1.6a17.73,17.73,0,0,0-3.6,10.76v169.43a18,18,0,0,0,3.65,10.92l1.21,1.6Zm81.5-36.43v23.81a12.66,12.66,0,0,1-12.48,12.49,12.44,12.44,0,0,1-12.31-12.49v-23.81h24.79Z" transform="translate(-2349 -2711.95)" style="fill:#333"/><path d="M2428.43,2846.06a18,18,0,1,0,18,18A18,18,0,0,0,2428.43,2846.06Zm0,30.38a12.4,12.4,0,1,1,12.4-12.39A12.41,12.41,0,0,1,2428.43,2876.44Z" transform="translate(-2349 -2711.95)" style="fill:#fdc00c"/><path d="M2479.15,2788.92H2377.88a2.8,2.8,0,1,0,0,5.59h101.27A2.8,2.8,0,0,0,2479.15,2788.92Z" transform="translate(-2349 -2711.95)" style="fill:#fdc00c"/><path d="M2464,2804.11h-70.89a2.79,2.79,0,1,0,0,5.59H2464A2.79,2.79,0,0,0,2464,2804.11Z" transform="translate(-2349 -2711.95)" style="fill:#fdc00c"/><path d="M2479.15,2773.73H2464a2.8,2.8,0,1,0,0,5.59h15.19A2.8,2.8,0,0,0,2479.15,2773.73Z" transform="translate(-2349 -2711.95)" style="fill:#fdc00c"/><path d="M2448.76,2773.73h-70.88a2.8,2.8,0,1,0,0,5.59h70.88A2.8,2.8,0,1,0,2448.76,2773.73Z" transform="translate(-2349 -2711.95)" style="fill:#fdc00c"/><path d="M2466.09,2754.64l-11.81-15.19a2.83,2.83,0,0,0-2.22-1.08,2.79,2.79,0,0,0-2.2,1.08l-9.61,12.35-9.6-12.35a2.81,2.81,0,0,0-2.21-1.08,2.78,2.78,0,0,0-2.21,1.08l-9.61,12.35-9.6-12.35a2.8,2.8,0,0,0-4.42,0l-11.82,15.19a2.77,2.77,0,0,0,2.18,4.49,2.85,2.85,0,0,0,2.24-1.06l9.61-12.35,9.6,12.35a2.81,2.81,0,0,0,2.21,1.08,2.77,2.77,0,0,0,2.21-1.08l9.61-12.35,9.6,12.35a2.8,2.8,0,0,0,4.42,0l9.6-12.35,9.61,12.35a2.77,2.77,0,0,0,1.86,1.06,2.8,2.8,0,0,0,2.07-.57,2.76,2.76,0,0,0,1-1.86A2.73,2.73,0,0,0,2466.09,2754.64Z" transform="translate(-2349 -2711.95)" style="fill:#fdc00c"/></svg>