<svg id="Режим_изоляции" data-name="Режим изоляции" xmlns="http://www.w3.org/2000/svg" width="14.45cm" height="14.45cm" viewBox="0 0 409.6 409.6"><title>Phone иконка</title><path d="M2124.8,2630.29c-113.1,0-204.8,91.7-204.8,204.8s91.7,204.8,204.8,204.8,204.8-91.7,204.8-204.8-91.7-204.8-204.8-204.8h0Zm108.15,298.82-16.4,16.4c-2.93,2.92-11.5,4.75-11.78,4.75a193.41,193.41,0,0,1-195.17-195.62s1.88-8.35,4.8-11.25l16.4-16.4c6-6,17.52-8.75,25.6-6.05l3.45,1.15c8.05,2.7,16.5,11.6,18.72,19.8l8.25,30.27c2.23,8.23-.77,19.93-6.77,25.93L2069.1,2809a116.29,116.29,0,0,0,81.77,81.8l10.95-10.95c6-6,17.73-9,25.93-6.8l30.27,8.27c8.2,2.25,17.1,10.65,19.8,18.7l1.15,3.5c2.68,8.05,0,19.58-6,25.55h0Zm0,0" transform="translate(-1920 -2630.29)" style="fill:#333"/></svg>