<svg id="Режим_изоляции" data-name="Режим изоляции" xmlns="http://www.w3.org/2000/svg" width="2.03cm" height="2.76cm" viewBox="0 0 57.56 78.17"><title>placeholder</title><path d="M399.78,165.29A28.81,28.81,0,0,0,371,194.07a28.1,28.1,0,0,0,2.52,11.75c7.2,15.74,21,32.37,25.05,37.09a1.6,1.6,0,0,0,2.43,0c4.05-4.72,17.85-21.34,25-37.09a28,28,0,0,0,2.52-11.75,28.82,28.82,0,0,0-28.78-28.78h0Zm0,43.73a14.95,14.95,0,1,1,15-14.95,15,15,0,0,1-15,14.95h0Zm0,0" transform="translate(-371 -165.29)" style="fill:#fdc002"/></svg>