<svg id="Режим_изоляции" data-name="Режим изоляции" xmlns="http://www.w3.org/2000/svg" width="1.69cm" height="1.69cm" viewBox="0 0 48 48"><title>play</title><path d="M2137.45,2834.63l-17.6-12a0.8,0.8,0,0,0-1.25.66v24a0.8,0.8,0,0,0,.43.71,0.79,0.79,0,0,0,.82,0l17.6-12a0.79,0.79,0,0,0,0-1.32h0Zm-17.25,11.14v-21l15.38,10.48Zm0,0" transform="translate(-2101 -2811.29)" style="fill:#fff"/><path d="M2125,2811.29a24,24,0,1,0,24,24,24,24,0,0,0-24-24h0Zm0,46.4a22.4,22.4,0,1,1,22.4-22.4,22.42,22.42,0,0,1-22.4,22.4h0Zm0,0" transform="translate(-2101 -2811.29)" style="fill:#fff"/></svg>