<svg id="Слой_1" data-name="Слой 1" xmlns="http://www.w3.org/2000/svg" width="14.38cm" height="11.04cm" viewBox="0 0 407.61 312.85"><title>Возможность оплаты ремонта</title><path d="M2251,3374.2h-42.68v-59.83a33.23,33.23,0,0,0-33.19-33.19H1909.82a33.24,33.24,0,0,0-33.2,33.19V3467.8a33.24,33.24,0,0,0,33.2,33.2h42.68v59.83a33.23,33.23,0,0,0,33.19,33.2H2251a33.24,33.24,0,0,0,33.2-33.2V3407.4A33.25,33.25,0,0,0,2251,3374.2Zm-356.87-59.83a15.68,15.68,0,0,1,15.66-15.65h265.34a15.67,15.67,0,0,1,15.65,15.65V3329H1894.16v-14.64Zm61.52,78.86a32.9,32.9,0,0,0-3.18,14.17v76.05h-42.68a15.68,15.68,0,0,1-15.66-15.65v-76h62.2Zm-60.52-19h-1v-27.71h296.65v27.64H1985.69c-0.64,0-1.27,0-1.9.06h-88.63Zm371.52,186.56a15.67,15.67,0,0,1-15.65,15.66H1985.69a15.67,15.67,0,0,1-15.65-15.66V3407.4a15.74,15.74,0,0,1,14.38-15.59h215.16c0.32,0,.65,0,1-0.06H2251a15.67,15.67,0,0,1,15.65,15.65v153.43Z" transform="translate(-1876.62 -3281.18)" style="fill:#fff"/><path d="M2147.79,3438a45.57,45.57,0,0,0-28.77,10.12l-0.62.5-0.63-.5a45.48,45.48,0,0,0-28.84-10.12,46.1,46.1,0,0,0,0,92.2,45.48,45.48,0,0,0,28.84-10.12l0.63-.51,0.62,0.51a45.58,45.58,0,0,0,28.77,10.12A46.1,46.1,0,1,0,2147.79,3438Zm-40.92,67.28,0.39,0.73-0.65.52a28.17,28.17,0,0,1-17.68,6.13,28.56,28.56,0,0,1,0-57.12,28.22,28.22,0,0,1,17.68,6.13l0.65,0.51-0.39.73A45.91,45.91,0,0,0,2106.87,3505.3Zm40.92,7.37a28.55,28.55,0,1,1,28.56-28.55A28.59,28.59,0,0,1,2147.79,3512.67Z" transform="translate(-1876.62 -3281.18)" style="fill:#fdc00c"/></svg>