<svg id="Слой_1" data-name="Слой 1" xmlns="http://www.w3.org/2000/svg" width="6.08cm" height="6.08cm" viewBox="0 0 172.22 172.22"><title>telegram</title><path d="M5037.22,1801.44a86.11,86.11,0,1,1-86.11-86.11,86.11,86.11,0,0,1,86.11,86.11h0Zm0,0" transform="translate(-4865 -1715.33)" style="fill:#fff;opacity:0"/><path d="M4942.79,2005.68q-3-1.53-5.86-3.14S4939.62,2002.66,4942.79,2005.68Z" transform="translate(-4865 -1715.33)" style="fill:#8e8e8e"/><path d="M4992,1766l-15,75.71s-2.1,5.25-7.88,2.73l-34.65-26.57-12.6-6.09-21.21-7.14s-3.26-1.15-3.57-3.67,3.68-3.89,3.68-3.89l84.32-33.08S4992,1760.93,4992,1766Z" transform="translate(-4865 -1715.33)" style="fill:#fff"/><path d="M4931.8,1840.83s-1-.09-2.27-4.09-7.67-25-7.67-25l50.93-32.34s2.94-1.78,2.84,0c0,0,.53.32-1,1.79s-40,36-40,36" transform="translate(-4865 -1715.33)" style="fill:#d2e5f1"/><path d="M4947.75,1828l-13.71,12.5a2.4,2.4,0,0,1-2.24.3l2.62-23.21" transform="translate(-4865 -1715.33)" style="fill:#b5cfe4"/></svg>