<svg id="Слой_1" data-name="Слой 1" xmlns="http://www.w3.org/2000/svg" width="6.08cm" height="6.08cm" viewBox="0 0 172.22 172.22"><title>vk</title><path d="M5037.22,1801.44a86.11,86.11,0,1,1-86.11-86.11,86.11,86.11,0,0,1,86.11,86.11h0Zm0,0" transform="translate(-4865 -1715.33)" style="fill:#fff;opacity:0"/><path d="M4948.16,1831.23h5.07a4.27,4.27,0,0,0,2.31-1,3.72,3.72,0,0,0,.7-2.23s-0.1-6.81,3.06-7.81,7.11,6.58,11.35,9.48c3.21,2.2,5.64,1.72,5.64,1.72l11.33-.16s5.93-.37,3.12-5c-0.23-.38-1.64-3.45-8.43-9.75-7.1-6.59-6.15-5.53,2.41-16.94,5.21-6.95,7.3-11.19,6.65-13s-4.45-1.27-4.45-1.27l-12.76.08a2.91,2.91,0,0,0-1.65.29,3.54,3.54,0,0,0-1.12,1.37,73.58,73.58,0,0,1-4.71,9.95c-5.68,9.65-8,10.16-8.88,9.56-2.16-1.4-1.62-5.61-1.62-8.61,0-9.35,1.42-13.25-2.76-14.26a21.61,21.61,0,0,0-6-.59c-4.56-.05-8.41,0-10.59,1.08-1.45.71-2.57,2.3-1.89,2.38a5.74,5.74,0,0,1,3.77,1.9c1.3,1.78,1.26,5.77,1.26,5.77s0.75,11-1.76,12.38c-1.72.94-4.08-1-9.15-9.73a81.54,81.54,0,0,1-4.55-9.44,3.79,3.79,0,0,0-1.05-1.42,5.29,5.29,0,0,0-2-.79l-12.12.08s-1.82.05-2.49,0.84,0,2.16,0,2.16,9.49,22.21,20.24,33.4c9.86,10.26,21.05,9.59,21.05,9.59h0Zm0,0" transform="translate(-4865 -1715.33)" style="fill:#fff;fill-rule:evenodd"/></svg>