<svg id="Слой_1" data-name="Слой 1" xmlns="http://www.w3.org/2000/svg" width="2.59cm" height="2.59cm" viewBox="0 0 73.28 73.28"><title>vk</title><path d="M2257.28,2835.29a36.64,36.64,0,1,1-36.64-36.64,36.64,36.64,0,0,1,36.64,36.64h0Zm0,0" transform="translate(-2184 -2798.65)" style="fill:#888"/><path d="M2219.26,2851.36h2.88a2.42,2.42,0,0,0,1.31-.57,2.11,2.11,0,0,0,.4-1.26s-0.06-3.86,1.73-4.43,4,3.73,6.44,5.38a4.55,4.55,0,0,0,3.2,1l6.42-.09s3.36-.21,1.77-2.85c-0.13-.22-0.93-2-4.78-5.53-4-3.74-3.49-3.14,1.37-9.6,3-3.94,4.14-6.34,3.77-7.37s-2.53-.72-2.53-0.72l-7.24,0a1.65,1.65,0,0,0-.93.16,2,2,0,0,0-.64.78,41.71,41.71,0,0,1-2.67,5.64c-3.22,5.47-4.51,5.76-5,5.42-1.22-.79-0.92-3.18-0.92-4.88,0-5.3.8-7.51-1.57-8.08a12.25,12.25,0,0,0-3.37-.33c-2.58,0-4.77,0-6,.61-0.82.4-1.46,1.3-1.07,1.35a3.25,3.25,0,0,1,2.14,1.08,7,7,0,0,1,.71,3.27s0.43,6.24-1,7c-1,.53-2.31-0.56-5.19-5.52a46.23,46.23,0,0,1-2.58-5.35,2.15,2.15,0,0,0-.6-0.8,3,3,0,0,0-1.11-.45l-6.87,0a2.34,2.34,0,0,0-1.41.48,1.51,1.51,0,0,0,0,1.22s5.38,12.59,11.47,18.93c5.59,5.82,11.93,5.44,11.93,5.44h0Zm0,0" transform="translate(-2184 -2798.65)" style="fill:#fff;fill-rule:evenodd"/></svg>