<svg id="Слой_1" data-name="Слой 1" xmlns="http://www.w3.org/2000/svg" width="6.08cm" height="6.08cm" viewBox="0 0 172.22 172.22"><title>whatsapp</title><path d="M5037.22,1801.44a86.11,86.11,0,1,1-86.11-86.11,86.11,86.11,0,0,1,86.11,86.11h0Zm0,0" transform="translate(-4865 -1715.33)" style="fill:#fff;opacity:0"/><path d="M5000.9,1800.23a49,49,0,0,1-72.52,42.47l-27.07,8.6,8.82-26a48,48,0,0,1-7-25,48.89,48.89,0,0,1,97.78,0h0ZM4952,1759.44a41,41,0,0,0-41.1,40.79,40.36,40.36,0,0,0,7.83,23.91l-5.13,15.14,15.79-5a40.89,40.89,0,1,0,22.62-74.83h0Zm24.69,52c-0.3-.5-1.1-0.79-2.3-1.39s-7.09-3.47-8.19-3.87-1.9-.59-2.7.59-3.1,3.87-3.8,4.66-1.39.89-2.59,0.3a32.78,32.78,0,0,1-9.64-5.9,36.17,36.17,0,0,1-6.67-8.24c-0.7-1.19-.07-1.83.52-2.42s1.2-1.39,1.8-2.08a8.15,8.15,0,0,0,1.2-2,2.16,2.16,0,0,0-.1-2.08c-0.3-.59-2.7-6.45-3.7-8.83s-2-2-2.7-2-1.5-.1-2.3-0.1a4.41,4.41,0,0,0-3.19,1.49,13.29,13.29,0,0,0-4.19,9.91c0,5.85,4.29,11.51,4.89,12.3s8.29,13.19,20.47,18,12.18,3.17,14.38,3,7.09-2.87,8.09-5.65,1-5.16.7-5.65h0Zm0,0" transform="translate(-4865 -1715.33)" style="fill:#fff;fill-rule:evenodd"/></svg>